<?xml version="1.0" encoding="iso-8859-1"?>
<!-- Generator: Adobe Illustrator 19.0.0, SVG Export Plug-In . SVG Version: 6.00 Build 0)  -->
<svg version="1.1" id="Layer_1" xmlns="http://www.w3.org/2000/svg" xmlns:xlink="http://www.w3.org/1999/xlink" x="0px" y="0px"
	 viewBox="0 0 503.467 503.467" style="enable-background:new 0 0 503.467 503.467;" xml:space="preserve">
<g transform="translate(5 1)">
	<path style="fill:#FF7474;" d="M459.64,481.133c0,0,0,17.067-17.067,17.067H297.507c-25.6,0-42.667-8.533-51.2-25.6
		c-10.24-19.627-59.733-119.467-128-134.827c-5.973-1.707-11.947-1.707-17.067-1.707H53.453l0,0
		c-10.24-42.667-20.48-77.653-20.48-102.4c0-51.2,51.2-59.733,51.2-59.733s25.6,0,68.267,51.2
		c46.08,55.467,102.4,187.733,136.533,187.733s51.2-8.533,76.8-8.533c29.013,0,42.667,8.533,68.267,34.133
		C451.107,455.533,459.64,464.067,459.64,481.133z M203.64,11.8c51.2,0,51.2-8.533,85.333-8.533
		c59.733,0,136.533,34.133,136.533,34.133c17.067,8.533,34.133,17.067,34.133,34.133s-17.067,25.6-34.133,34.133
		c0,0-76.8,34.133-136.533,34.133c-34.133,0-34.133-8.533-85.333-8.533H92.707c-42.667,0-59.733-31.573-59.733-59.733
		S50.04,11.8,92.707,11.8H203.64z"/>
	<path style="fill:#F2EDDA;" d="M53.453,336.067h47.787c5.973,0,11.947,0.853,17.067,1.707v1.707
		c-8.533,34.133-17.067,98.987-17.067,158.72h-25.6C75.64,436.76,64.547,382.147,53.453,336.067L53.453,336.067z"/>
	<path style="fill:#AE938D;" d="M280.44,37.4c17.067,0,59.733,8.533,59.733,34.133s-42.667,34.133-59.733,34.133H92.707
		c-19.627,0-34.133-14.507-34.133-34.133S73.933,37.4,92.707,37.4H280.44z"/>
</g>
<path style="fill:#51565F;" d="M447.573,503.467H302.507c-27.307,0-46.08-9.387-54.613-28.16
	c-24.747-50.347-76.8-133.973-141.653-133.973H89.173c-2.56,0-4.267-1.707-4.267-4.267s1.707-4.267,4.267-4.267h17.067
	c69.12,0,122.88,87.04,148.48,139.093c7.68,15.36,23.04,23.04,47.787,23.04h145.067c11.947,0,12.8-11.093,12.8-12.8
	c0-15.36-7.68-23.04-24.747-39.253c-24.747-24.747-37.547-33.28-64.853-33.28c-11.093,0-21.333,1.707-31.573,3.413
	c-11.947,2.56-26.453,5.12-45.227,5.12c-23.04,0-51.2-47.787-83.627-103.253c-18.773-32.427-38.4-64.853-56.32-86.187
	C113.92,180.053,89.173,179.2,89.173,179.2c-0.853,0-46.933,8.533-46.933,55.467c0,19.627,6.827,46.933,14.507,78.507
	c11.947,49.493,27.307,110.933,28.16,181.76h17.067c0-58.88,8.533-128,8.533-128.853c0-2.56,2.56-4.267,5.12-3.413
	c2.56,0,4.267,2.56,3.413,5.12c0,0.853-8.533,73.387-8.533,131.413c0,2.56-1.707,4.267-4.267,4.267h-25.6
	c-2.56,0-4.267-1.707-4.267-4.267c0-71.68-15.36-133.973-28.16-183.467C39.68,282.453,33.707,256,33.707,234.667
	c0-54.613,54.613-64,54.613-64c1.707,0,29.013,0.853,72.533,52.907c17.92,22.187,37.547,55.467,57.173,87.893
	c27.307,46.08,58.027,98.987,76.8,98.987c17.92,0,30.72-2.56,43.52-4.267c11.093-1.707,21.333-4.267,33.28-4.267
	c30.72,0,45.227,9.387,71.68,34.987c17.067,17.067,26.453,26.453,26.453,46.08C468.907,489.813,464.64,503.467,447.573,503.467z
	 M293.973,145.067c-15.36,0-24.747-1.707-34.133-3.413c-11.093-2.56-23.893-5.12-51.2-5.12H97.707c-44.373,0-64-32.427-64-64
	s19.627-64,64-64H208.64c28.16,0,40.107-2.56,51.2-5.12C269.227,1.707,277.76,0,293.973,0C354.56,0,428.8,33.28,432.213,34.133l0,0
	c17.92,9.387,36.693,17.92,36.693,37.547s-18.773,29.013-36.693,37.547C428.8,111.787,353.707,145.067,293.973,145.067z
	 M97.707,17.067c-40.96,0-55.467,29.867-55.467,55.467S56.747,128,97.707,128H208.64c29.013,0,41.813,2.56,52.907,5.12
	c9.387,1.707,17.067,3.413,32.427,3.413c58.027,0,133.973-33.28,134.827-34.133c16.213-7.68,31.573-16.213,31.573-29.867
	c0-14.507-15.36-22.187-31.573-29.867C426.24,41.813,352,8.533,293.973,8.533c-14.507,0-23.04,1.707-32.427,3.413
	c-11.093,2.56-24.747,5.12-52.907,5.12H97.707z M285.44,110.933H97.707c-22.187,0-38.4-16.213-38.4-38.4
	c0-21.333,17.067-38.4,38.4-38.4H285.44c19.627,0,64,9.387,64,38.4S305.067,110.933,285.44,110.933z M97.707,42.667
	c-17.067,0-29.867,12.8-29.867,29.867S80.64,102.4,97.707,102.4H285.44c14.507,0,55.467-7.68,55.467-29.867
	s-40.96-29.867-55.467-29.867H97.707z"/>
<g>
</g>
<g>
</g>
<g>
</g>
<g>
</g>
<g>
</g>
<g>
</g>
<g>
</g>
<g>
</g>
<g>
</g>
<g>
</g>
<g>
</g>
<g>
</g>
<g>
</g>
<g>
</g>
<g>
</g>
</svg>
