<?xml version="1.0" encoding="iso-8859-1"?>
<!-- Generator: Adobe Illustrator 19.1.0, SVG Export Plug-In . SVG Version: 6.00 Build 0)  -->
<svg xmlns="http://www.w3.org/2000/svg" xmlns:xlink="http://www.w3.org/1999/xlink" version="1.1" id="Capa_1" x="0px" y="0px" viewBox="0 0 31.059 31.059" style="enable-background:new 0 0 31.059 31.059;" xml:space="preserve" width="512px" height="512px">
<g>
	<g>
		<path d="M15.529,31.059C6.966,31.059,0,24.092,0,15.529S6.966,0,15.529,0    c8.563,0,15.529,6.967,15.529,15.529S24.092,31.059,15.529,31.059z M15.529,1.775c-7.585,0-13.755,6.17-13.755,13.754    c0,7.584,6.17,13.755,13.755,13.755c7.584,0,13.754-6.171,13.754-13.755C29.283,7.945,23.113,1.775,15.529,1.775z" fill="#FFFFFF"/>
	</g>
	<g>
		<path d="M12.749,24.944c-0.077,0-0.155-0.009-0.233-0.028c-0.523-0.129-0.842-0.656-0.713-1.178l2.271-9.24    c0.128-0.521,0.651-0.84,1.173-0.715c0.521,0.125,0.843,0.646,0.721,1.168c-0.123,0.539-0.338,2.26,0.281,3.035    c0.146,0.184,0.418,0.428,1.097,0.428c1.434,0,2.951-2.326,2.951-4.524c0-0.714-0.161-1.727-0.925-2.491    c-0.745-0.746-1.915-1.123-3.479-1.123c-4.135,0-4.927,2.609-5.071,3.41c-0.222,1.234,0.215,2.43,0.994,2.72    c0.505,0.188,0.762,0.749,0.573,1.253c-0.188,0.504-0.748,0.76-1.252,0.572c-1.69-0.629-2.63-2.686-2.232-4.891    c0.416-2.312,2.496-5.013,6.988-5.013c2.099,0,3.733,0.569,4.857,1.694c0.978,0.979,1.495,2.316,1.495,3.868    c0,3.056-2.095,6.472-4.899,6.472c-1.246,0-2.014-0.498-2.466-0.982l-1.185,4.824C13.585,24.646,13.186,24.944,12.749,24.944z" fill="#FFFFFF"/>
	</g>
</g>
<g>
</g>
<g>
</g>
<g>
</g>
<g>
</g>
<g>
</g>
<g>
</g>
<g>
</g>
<g>
</g>
<g>
</g>
<g>
</g>
<g>
</g>
<g>
</g>
<g>
</g>
<g>
</g>
<g>
</g>
</svg>
