<?xml version="1.0" encoding="iso-8859-1"?>
<!-- Generator: Adobe Illustrator 19.0.0, SVG Export Plug-In . SVG Version: 6.00 Build 0)  -->
<svg version="1.1" id="Layer_1" xmlns="http://www.w3.org/2000/svg" xmlns:xlink="http://www.w3.org/1999/xlink" x="0px" y="0px"
	 viewBox="0 0 503.694 503.694" style="enable-background:new 0 0 503.694 503.694;" xml:space="preserve">
<g transform="translate(1 2)">
	<path style="fill:#ECF4F7;" d="M73.467,193.1l-35.84,5.973L3.494,62.54l34.133-17.067L73.467,193.1z M498.427,62.54
		l-34.133,136.533l-37.547-5.973l37.547-147.627L498.427,62.54z M88.827,455.074h324.267l0,0l0,0
		c0,18.773-15.36,34.133-34.133,34.133h-256C104.187,489.207,88.827,473.847,88.827,455.074L88.827,455.074z"/>
	<path style="fill:#AAB1BA;" d="M157.094,11.34h187.733c0,52.053-41.813,93.867-93.867,93.867S157.094,63.394,157.094,11.34"/>
	<path style="fill:#80D6FA;" d="M464.294,45.474L426.747,193.1l-13.653-2.56v264.533l0,0H88.827V190.54l-15.36,2.56L37.627,45.474
		L71.76,28.407c17.067-8.533,42.667-17.067,51.2-17.067h34.133c0,52.053,41.813,93.867,93.867,93.867s93.867-41.813,93.867-93.867
		h34.133c8.533,0,34.133,8.533,51.2,17.067L464.294,45.474z"/>
	<path style="fill:#FFE079;" d="M250.96,307.447c0,0-32.427,23.04-37.547,26.453c-3.413,2.56-11.093,3.413-7.68-5.12
		c1.707-7.68,11.947-42.667,11.947-42.667s-29.867-22.187-33.28-24.747c-3.413-2.56-3.413-9.387,2.56-9.387
		c5.973-0.853,42.667-3.413,42.667-3.413s14.507-39.253,16.213-44.373c1.707-5.973,7.68-6.827,10.24,0
		c1.707,5.12,17.92,45.227,17.92,45.227s34.987,3.413,40.107,3.413c5.973,0,5.973,7.68,2.56,10.24
		c-3.413,2.56-30.72,23.893-30.72,23.893s8.533,33.28,10.24,42.667c2.56,8.533-4.267,8.533-8.533,5.12
		C283.387,330.487,250.96,307.447,250.96,307.447"/>
</g>
<path style="fill:#51565F;" d="M379.96,495.474h-256c-21.333,0-38.4-17.067-38.4-38.4V197.66l-46.08,7.68
	c-2.56,0-4.267-0.853-5.12-3.413L0.227,65.394c-0.853-1.707,0.853-4.267,2.56-5.12L36.92,43.207l0,0L71.054,26.14
	C87.267,18.46,113.72,8.22,123.96,8.22h187.733c2.56,0,4.267,1.707,4.267,4.267s-1.707,4.267-4.267,4.267H162.36
	c2.56,47.787,41.813,85.333,89.6,85.333c49.493,0,89.6-40.107,89.6-89.6c0-2.56,1.707-4.267,4.267-4.267h34.133
	c10.24,0,36.693,9.387,52.907,17.92L467,43.207l0,0l34.133,17.067c1.707,0.853,2.56,2.56,2.56,5.12L469.56,201.927
	c-0.853,2.56-2.56,3.413-5.12,3.413l-46.08-7.68v259.413C418.36,478.407,401.294,495.474,379.96,495.474z M89.827,188.274
	c0.853,0,1.707,0,2.56,0.853c0.853,0.853,1.707,1.707,1.707,3.413v264.533c0,16.213,13.653,29.867,29.867,29.867h256
	c15.36,0,27.307-11.093,29.867-25.6H123.96c-2.56,0-4.267-1.707-4.267-4.267s1.707-4.267,4.267-4.267h285.867V192.54
	c0-0.853,0.853-2.56,1.707-3.413c0.853-0.853,2.56-0.853,3.413-0.853l46.933,7.68l32.427-129.707l-26.453-12.8l-28.16,114.347
	c-0.853,2.56-2.56,3.413-5.12,3.413c-1.707-0.853-3.413-2.56-3.413-4.267v-0.853l29.013-116.053l-30.72-15.36
	C411.533,26.14,387.64,18.46,379.96,18.46h-29.867c-2.56,52.053-45.227,93.867-98.133,93.867s-95.573-41.813-98.133-93.867H123.96
	c-6.827,0-31.573,7.68-49.493,16.213l-30.72,15.36L72.76,166.087v0.853c0,1.707-1.707,3.413-3.413,4.267
	c-2.56,0.853-4.267-0.853-5.12-3.413L36.067,53.447l-26.453,12.8L42.04,195.953L89.827,188.274
	C88.974,188.274,89.827,188.274,89.827,188.274z M294.627,341.874c-2.56,0-5.12-0.853-7.68-2.56
	c-4.267-2.56-27.307-19.627-34.987-24.747c-7.68,5.12-30.72,22.187-34.987,24.747c-3.413,2.56-8.533,3.413-12.8,0.853
	c-1.707-1.707-4.267-4.267-1.707-11.093l11.093-39.253c-6.827-5.12-28.16-20.48-30.72-23.04c-3.413-2.56-4.267-6.827-3.413-11.093
	c0.853-3.413,4.267-5.973,8.533-5.973l40.107-3.413c3.413-8.533,13.653-37.547,15.36-41.813s5.12-7.68,8.533-7.68
	c4.267,0,7.68,2.56,9.387,7.68l17.067,42.667c8.533,0.853,33.28,2.56,37.547,3.413c4.267,0,6.827,2.56,8.533,6.827
	c0.853,4.267,0,8.533-3.413,11.093l-28.16,22.187c1.707,7.68,7.68,32.427,10.24,39.253c1.707,6.827-0.853,10.24-2.56,11.093
	C298.04,341.874,296.334,341.874,294.627,341.874z M251.96,305.18c0.853,0,1.707,0,2.56,0.853c0,0,32.427,23.04,36.693,26.453
	c0.853,0.853,1.707,0.853,2.56,0.853c0,0,0-0.853,0-1.707c-2.56-9.387-10.24-42.667-10.24-42.667c0-1.707,0-3.413,1.707-4.267
	l30.72-23.893c0.853-0.853,0.853-1.707,0.853-2.56c0,0,0-0.853-0.853-0.853c-5.12-0.853-40.107-3.413-40.107-3.413
	c-1.707,0-2.56-0.853-3.413-2.56l-17.92-45.227c-0.853-1.707-1.707-1.707-1.707-1.707s-0.853,0.853-0.853,1.707l0,0
	c-1.707,5.12-16.213,44.373-16.213,44.373c-0.853,1.707-1.707,2.56-3.413,2.56l-42.667,3.413c-0.853,0.853-0.853,1.707,0,1.707
	c3.413,2.56,33.28,23.893,33.28,23.893c1.707,0.853,1.707,2.56,1.707,4.267l-12.8,42.667c0,0.853,0,0.853,0,1.707
	c0.853,0,1.707-0.853,1.707-0.853c4.267-3.413,37.547-26.453,37.547-26.453C250.254,305.18,251.107,305.18,251.96,305.18z"/>
<g>
</g>
<g>
</g>
<g>
</g>
<g>
</g>
<g>
</g>
<g>
</g>
<g>
</g>
<g>
</g>
<g>
</g>
<g>
</g>
<g>
</g>
<g>
</g>
<g>
</g>
<g>
</g>
<g>
</g>
</svg>
