<?xml version="1.0" encoding="iso-8859-1"?>
<!-- Generator: Adobe Illustrator 19.0.0, SVG Export Plug-In . SVG Version: 6.00 Build 0)  -->
<svg version="1.1" id="Layer_1" xmlns="http://www.w3.org/2000/svg" xmlns:xlink="http://www.w3.org/1999/xlink" x="0px" y="0px"
	 viewBox="0 0 503.467 503.467" style="enable-background:new 0 0 503.467 503.467;" xml:space="preserve">
<g transform="translate(1 1)">
	<path style="fill:#ECF4F7;" d="M378.733,208.067v256c0,18.773-15.36,34.133-34.133,34.133H156.867
		c-18.773,0-34.133-15.36-34.133-34.133v-256c0-18.773,15.36-34.133,34.133-34.133H344.6
		C363.373,173.933,378.733,189.293,378.733,208.067"/>
	<path style="fill:#FFE079;" d="M250.733,208.067c52.053,0,93.867,41.813,93.867,93.867S302.787,395.8,250.733,395.8
		s-93.867-41.813-93.867-93.867S198.68,208.067,250.733,208.067"/>
	<path style="fill:#C49AE9;" d="M498.2,20.333V293.4c0,9.387-7.68,17.067-17.067,17.067h-25.6h-25.6
		c-9.387,0-17.067-7.68-17.067-17.067V20.333c0-9.387,7.68-17.067,17.067-17.067h51.2C490.52,3.267,498.2,10.947,498.2,20.333"/>
	<path style="fill:#50DD8E;" d="M336.067,447c5.12,0,8.533,4.267,8.533,8.533s-3.413,8.533-8.533,8.533s-8.533-4.267-8.533-8.533
		S330.947,447,336.067,447"/>
	<path style="fill:#AAB1BA;" d="M250.733,276.333c14.507,0,25.6,11.093,25.6,25.6s-11.093,25.6-25.6,25.6
		c-14.507,0-25.6-11.093-25.6-25.6S236.227,276.333,250.733,276.333"/>
	<path style="fill:#C49AE9;" d="M88.6,20.333V293.4c0,9.387-7.68,17.067-17.067,17.067h-25.6h-25.6
		c-9.387,0-17.067-7.68-17.067-17.067V20.333c0-9.387,7.68-17.067,17.067-17.067h51.2C80.92,3.267,88.6,10.947,88.6,20.333"/>
</g>
<path style="fill:#51565F;" d="M499.2,503.467h-85.333c-2.56,0-4.267-1.707-4.267-4.267c0-2.56,1.707-4.267,4.267-4.267h38.4v-179.2
	h-21.333c-11.947,0-21.333-9.387-21.333-21.333V21.333C409.6,9.387,418.987,0,430.933,0h51.2c11.947,0,21.333,9.387,21.333,21.333
	V294.4c0,11.947-9.387,21.333-21.333,21.333c-2.56,0-4.267-1.707-4.267-4.267c0-2.56,1.707-4.267,4.267-4.267
	c6.827,0,12.8-5.973,12.8-12.8V21.333c0-6.827-5.973-12.8-12.8-12.8h-51.2c-6.827,0-12.8,5.973-12.8,12.8V294.4
	c0,6.827,5.973,12.8,12.8,12.8h25.6c2.56,0,4.267,1.707,4.267,4.267v183.467h38.4c2.56,0,4.267,1.707,4.267,4.267
	C503.467,501.76,501.76,503.467,499.2,503.467z M345.6,503.467H157.867c-21.333,0-38.4-17.067-38.4-38.4v-256
	c0-21.333,17.067-38.4,38.4-38.4H345.6c21.333,0,38.4,17.067,38.4,38.4v256C384,486.4,366.933,503.467,345.6,503.467z
	 M157.867,179.2c-16.213,0-29.867,13.653-29.867,29.867v256c0,16.213,13.653,29.867,29.867,29.867H345.6
	c16.213,0,29.867-13.653,29.867-29.867v-256c0-16.213-13.653-29.867-29.867-29.867H157.867z M89.6,503.467H4.267
	C1.707,503.467,0,501.76,0,499.2c0-2.56,1.707-4.267,4.267-4.267h38.4v-179.2H21.333C9.387,315.733,0,306.347,0,294.4V21.333
	C0,9.387,9.387,0,21.333,0h51.2C84.48,0,93.867,9.387,93.867,21.333V294.4c0,11.947-9.387,21.333-21.333,21.333
	c-2.56,0-4.267-1.707-4.267-4.267c0-2.56,1.707-4.267,4.267-4.267c6.827,0,12.8-5.973,12.8-12.8V21.333
	c0-6.827-5.973-12.8-12.8-12.8h-51.2c-6.827,0-12.8,5.973-12.8,12.8V294.4c0,6.827,5.973,12.8,12.8,12.8h25.6
	c2.56,0,4.267,1.707,4.267,4.267v183.467h38.4c2.56,0,4.267,1.707,4.267,4.267C93.867,501.76,92.16,503.467,89.6,503.467z
	 M337.067,469.333c-6.827,0-12.8-5.973-12.8-12.8s5.973-12.8,12.8-12.8s12.8,5.973,12.8,12.8S343.893,469.333,337.067,469.333z
	 M337.067,452.267c-2.56,0-4.267,1.707-4.267,4.267s1.707,4.267,4.267,4.267s4.267-1.707,4.267-4.267
	S339.627,452.267,337.067,452.267z M251.733,401.067c-53.76,0-98.133-44.373-98.133-98.133s44.373-98.133,98.133-98.133
	s98.133,44.373,98.133,98.133c0,20.48-5.973,40.107-17.92,56.32c-1.707,1.707-4.267,2.56-5.973,0.853
	c-1.707-1.707-2.56-4.267-0.853-5.973c10.24-15.36,16.213-33.28,16.213-51.2c0-49.493-40.107-89.6-89.6-89.6s-89.6,40.107-89.6,89.6
	s40.107,89.6,89.6,89.6c18.773,0,35.84-5.973,51.2-16.213c1.707-1.707,4.267-0.853,5.973,0.853c1.707,1.707,0.853,4.267-0.853,5.973
	C290.987,395.093,272.213,401.067,251.733,401.067z M251.733,332.8c-16.213,0-29.867-13.653-29.867-29.867
	s13.653-29.867,29.867-29.867S281.6,286.72,281.6,302.933S267.947,332.8,251.733,332.8z M251.733,281.6
	c-11.947,0-21.333,9.387-21.333,21.333s9.387,21.333,21.333,21.333c11.947,0,21.333-9.387,21.333-21.333S263.68,281.6,251.733,281.6
	z M465.067,264.533H448c-2.56,0-4.267-1.707-4.267-4.267c0-2.56,1.707-4.267,4.267-4.267h17.067c2.56,0,4.267,1.707,4.267,4.267
	C469.333,262.827,467.627,264.533,465.067,264.533z M55.467,264.533H38.4c-2.56,0-4.267-1.707-4.267-4.267
	c0-2.56,1.707-4.267,4.267-4.267h17.067c2.56,0,4.267,1.707,4.267,4.267C59.733,262.827,58.027,264.533,55.467,264.533z
	 M465.067,213.333H448c-2.56,0-4.267-1.707-4.267-4.267c0-2.56,1.707-4.267,4.267-4.267h17.067c2.56,0,4.267,1.707,4.267,4.267
	C469.333,211.627,467.627,213.333,465.067,213.333z M55.467,213.333H38.4c-2.56,0-4.267-1.707-4.267-4.267
	c0-2.56,1.707-4.267,4.267-4.267h17.067c2.56,0,4.267,1.707,4.267,4.267C59.733,211.627,58.027,213.333,55.467,213.333z
	 M465.067,162.133H448c-2.56,0-4.267-1.707-4.267-4.267c0-2.56,1.707-4.267,4.267-4.267h17.067c2.56,0,4.267,1.707,4.267,4.267
	C469.333,160.427,467.627,162.133,465.067,162.133z M55.467,162.133H38.4c-2.56,0-4.267-1.707-4.267-4.267
	c0-2.56,1.707-4.267,4.267-4.267h17.067c2.56,0,4.267,1.707,4.267,4.267C59.733,160.427,58.027,162.133,55.467,162.133z
	 M465.067,110.933H448c-2.56,0-4.267-1.707-4.267-4.267S445.44,102.4,448,102.4h17.067c2.56,0,4.267,1.707,4.267,4.267
	S467.627,110.933,465.067,110.933z M55.467,110.933H38.4c-2.56,0-4.267-1.707-4.267-4.267S35.84,102.4,38.4,102.4h17.067
	c2.56,0,4.267,1.707,4.267,4.267S58.027,110.933,55.467,110.933z M465.067,59.733H448c-2.56,0-4.267-1.707-4.267-4.267
	c0-2.56,1.707-4.267,4.267-4.267h17.067c2.56,0,4.267,1.707,4.267,4.267C469.333,58.027,467.627,59.733,465.067,59.733z
	 M55.467,59.733H38.4c-2.56,0-4.267-1.707-4.267-4.267c0-2.56,1.707-4.267,4.267-4.267h17.067c2.56,0,4.267,1.707,4.267,4.267
	C59.733,58.027,58.027,59.733,55.467,59.733z"/>
<g>
</g>
<g>
</g>
<g>
</g>
<g>
</g>
<g>
</g>
<g>
</g>
<g>
</g>
<g>
</g>
<g>
</g>
<g>
</g>
<g>
</g>
<g>
</g>
<g>
</g>
<g>
</g>
<g>
</g>
</svg>
