<?xml version="1.0" ?><!DOCTYPE svg  PUBLIC '-//W3C//DTD SVG 1.1//EN'  'http://www.w3.org/Graphics/SVG/1.1/DTD/svg11.dtd'><svg enable-background="new 0 0 128 128" id="Layer_1" version="1.1" viewBox="0 0 128 128" xml:space="preserve" xmlns="http://www.w3.org/2000/svg" xmlns:xlink="http://www.w3.org/1999/xlink"><circle cx="64" cy="64" fill="#4B5F83" id="circle" r="64"/><g id="icon"><path d="M77.5,94h-27c-2.2,0-4-1.8-4-4V38c0-2.2,1.8-4,4-4h27c2.2,0,4,1.8,4,4v52   C81.5,92.2,79.7,94,77.5,94z" fill="#FFFFFF" id="base"/><rect fill="#22A7F0" height="42" id="screen" width="29" x="49.5" y="43"/><circle cx="63.9" cy="89.8" fill="#B3B3B3" id="nav" r="2"/><path d="M68,39.5h-8c-0.5,0-1-0.4-1-1v0c0-0.5,0.5-1,1-1h8c0.6,0,1,0.5,1,1v0   C69,39.1,68.6,39.5,68,39.5z" fill="#B3B3B3" id="speaker"/></g></svg>