<?xml version="1.0" encoding="UTF-8" ?>
<!DOCTYPE svg PUBLIC "-//W3C//DTD SVG 1.1//EN" "http://www.w3.org/Graphics/SVG/1.1/DTD/svg11.dtd">
<svg width="369pt" height="109pt" viewBox="0 0 369 109" version="1.1" xmlns="http://www.w3.org/2000/svg">
<path fill="#f0f0ee" d=" M 0.00 0.00 L 369.00 0.00 L 369.00 109.00 L 0.00 109.00 L 0.00 0.00 Z" />
<path fill="#333333" d=" M 173.63 6.01 C 179.25 11.13 184.18 16.95 189.41 22.45 C 212.14 46.66 234.68 71.05 257.52 95.16 C 284.52 66.00 311.82 37.11 338.87 8.00 C 339.63 7.28 340.44 6.62 341.29 6.00 C 338.42 10.59 334.24 14.14 330.59 18.07 C 339.89 27.21 345.86 39.91 345.76 53.06 C 346.26 67.59 339.57 82.08 328.40 91.34 C 317.44 100.81 302.04 104.83 287.84 102.04 C 278.65 100.61 270.28 95.93 263.29 89.93 C 261.45 92.12 259.50 94.22 257.64 96.39 C 255.49 94.32 253.39 92.20 251.34 90.03 C 241.26 99.05 227.50 104.01 213.97 102.71 C 202.03 101.81 190.53 96.28 182.37 87.52 C 172.40 77.14 167.52 62.16 169.34 47.89 C 170.57 36.62 176.06 26.03 184.19 18.18 C 180.84 13.97 176.23 10.78 173.63 6.01 Z" />
<path fill="#333333" d=" M 69.16 45.40 C 69.42 45.10 69.94 44.51 70.20 44.21 C 76.63 56.10 82.27 68.40 88.55 80.37 C 90.98 75.60 93.22 70.73 95.72 65.99 C 92.36 58.98 88.48 52.22 85.53 45.03 C 92.88 44.90 100.24 45.04 107.59 44.97 C 104.58 52.10 100.90 58.93 97.48 65.87 C 99.89 70.64 102.25 75.44 104.68 80.20 C 111.03 68.55 116.53 56.47 122.85 44.80 C 124.54 44.85 126.24 44.88 127.94 44.92 C 128.07 57.25 127.96 69.59 128.00 81.92 C 137.53 82.08 147.09 81.51 156.59 82.23 C 155.56 83.14 154.37 83.56 153.02 83.48 C 144.17 83.51 135.33 83.41 126.48 83.49 C 126.13 71.02 126.50 58.54 126.28 46.07 C 124.67 46.32 123.04 46.86 122.57 48.61 C 117.42 59.09 111.98 69.43 106.84 79.92 C 106.23 81.04 105.73 82.33 104.61 83.05 C 101.50 78.21 99.32 72.86 96.62 67.81 C 93.80 73.02 91.63 78.58 88.40 83.56 C 81.77 70.96 75.60 58.11 69.16 45.40 Z" />
<path fill="#333333" d=" M 48.49 45.57 C 54.75 44.17 61.72 46.22 66.20 50.83 C 71.43 55.87 73.47 64.01 70.89 70.85 C 68.13 79.00 59.52 84.66 50.94 83.84 C 42.86 83.20 35.57 77.11 33.64 69.21 C 30.70 58.99 38.12 47.52 48.49 45.57 Z" />
<path fill="#f0f0ee" d=" M 205.80 55.92 C 205.02 51.91 206.66 47.94 209.14 44.85 C 214.81 51.09 220.76 57.07 226.36 63.37 C 224.34 64.47 222.35 65.79 220.03 66.13 C 213.59 67.30 206.65 62.50 205.80 55.92 Z" />
<path fill="#f0f0ee" d=" M 288.43 63.47 C 294.03 57.13 299.88 51.02 305.74 44.91 C 307.76 47.85 309.79 51.24 309.15 54.98 C 308.66 61.48 302.48 66.77 295.97 66.28 C 293.24 66.08 290.84 64.62 288.43 63.47 Z" />
<path fill="#f0f0ee" d=" M 48.32 47.27 C 56.66 45.20 66.07 49.86 69.08 57.98 C 72.64 66.44 68.35 77.12 59.87 80.65 C 50.99 84.90 39.20 80.26 35.92 70.89 C 31.87 61.31 38.18 49.40 48.32 47.27 Z" />
<path fill="#f0f0ee" d=" M 87.82 46.56 C 93.63 46.60 99.43 46.55 105.24 46.60 C 102.34 52.42 99.51 58.27 96.52 64.04 C 93.65 58.20 90.73 52.38 87.82 46.56 Z" />
</svg>
