<?xml version="1.0" standalone="no"?>
<!DOCTYPE svg PUBLIC "-//W3C//DTD SVG 20010904//EN"
 "http://www.w3.org/TR/2001/REC-SVG-20010904/DTD/svg10.dtd">
<svg version="1.0" xmlns="http://www.w3.org/2000/svg"
 width="672.000000pt" height="357.000000pt" viewBox="0 0 672.000000 357.000000"
 preserveAspectRatio="xMidYMid meet">
<metadata>
Created by potrace 1.10, written by Peter Selinger 2001-2011
</metadata>
<g transform="translate(0.000000,357.000000) scale(0.100000,-0.100000)"
fill="#f94d00" stroke="none">
<path d="M960 3100 c0 -5 25 -34 55 -65 30 -31 55 -61 55 -66 0 -5 4 -9 8 -9
11 0 112 -98 112 -108 0 -4 14 -21 30 -37 17 -16 30 -34 30 -40 0 -7 -27 -41
-61 -76 -33 -35 -75 -84 -92 -109 -17 -25 -46 -67 -65 -95 -19 -27 -41 -63
-48 -80 -14 -28 -20 -41 -44 -82 -6 -10 -13 -25 -16 -33 -3 -8 -12 -27 -20
-42 -8 -14 -14 -37 -14 -50 0 -13 -4 -28 -10 -34 -5 -5 -14 -30 -19 -54 -6
-25 -14 -63 -20 -85 -51 -199 -49 -508 4 -676 8 -26 15 -55 15 -65 0 -11 7
-32 15 -48 8 -15 15 -35 15 -43 0 -8 6 -27 14 -41 8 -15 24 -47 36 -72 11 -25
25 -52 29 -60 4 -8 17 -33 27 -55 31 -65 157 -228 240 -310 71 -71 208 -182
244 -198 8 -4 29 -16 45 -27 67 -43 236 -120 264 -120 9 0 21 -4 26 -9 43 -41
415 -88 555 -71 167 20 231 30 243 37 6 4 29 10 52 14 63 11 114 30 245 94
123 59 218 120 325 210 34 29 43 31 51 10 4 -8 12 -15 20 -15 8 0 14 -4 14 -9
0 -5 30 -39 66 -77 70 -72 86 -76 109 -26 5 12 13 22 17 22 12 0 48 38 48 50
0 6 6 10 13 10 7 0 17 10 22 22 21 45 39 45 90 0 125 -110 344 -231 500 -276
33 -10 74 -22 91 -27 17 -5 64 -14 105 -19 207 -28 247 -31 345 -20 188 19
246 28 257 39 6 6 23 11 39 11 15 0 42 6 60 14 18 8 53 22 78 31 235 89 418
221 620 451 34 38 102 140 135 200 14 27 30 56 34 64 21 37 65 150 85 215 10
33 23 75 28 94 31 103 47 387 29 521 -18 133 -51 272 -86 355 -33 81 -112 234
-137 266 -15 20 -28 41 -28 45 0 11 -159 198 -171 202 -16 6 -10 62 6 62 8 0
15 4 15 8 0 8 59 71 220 238 43 44 48 54 27 54 -13 0 -67 -50 -67 -61 0 -3
-21 -29 -47 -56 -27 -28 -70 -74 -96 -102 -26 -28 -52 -51 -57 -51 -6 0 -10
-4 -10 -10 0 -5 -25 -35 -57 -67 -31 -32 -95 -101 -142 -153 -46 -52 -119
-131 -162 -175 -80 -83 -105 -110 -224 -238 -38 -42 -105 -112 -147 -157 -43
-45 -78 -86 -78 -91 0 -5 -7 -9 -15 -9 -8 0 -15 -4 -15 -8 0 -5 -28 -38 -62
-74 -35 -36 -94 -100 -133 -142 -38 -42 -91 -100 -117 -128 -27 -28 -48 -54
-48 -59 0 -5 -6 -9 -12 -9 -7 0 -22 -14 -33 -30 -11 -16 -26 -30 -32 -30 -7 0
-13 -4 -13 -10 0 -5 -28 -38 -62 -73 -35 -35 -112 -117 -172 -183 -144 -156
-320 -346 -376 -405 -149 -154 -200 -211 -200 -219 0 -6 -7 -10 -15 -10 -8 0
-15 -3 -15 -7 0 -9 -66 -83 -74 -83 -11 0 -266 265 -372 386 -29 32 -84 93
-124 134 -39 41 -121 129 -183 194 -62 66 -133 141 -159 166 -27 26 -48 51
-48 56 0 5 -27 34 -60 64 -33 30 -60 58 -60 62 0 11 -69 78 -80 78 -6 0 -10 5
-10 10 0 6 -28 39 -62 73 -35 35 -88 92 -118 127 -30 35 -77 87 -105 115 -27
28 -97 102 -155 165 -58 63 -125 135 -150 161 -25 25 -72 76 -105 111 -33 36
-113 122 -178 190 -64 69 -126 136 -137 149 -61 72 -376 399 -385 399 -3 0 -5
-4 -5 -10z m1082 -1158 c10 -16 38 -48 63 -71 25 -23 45 -44 45 -47 0 -7 63
-74 210 -225 119 -123 150 -159 150 -179 -1 -36 -235 -112 -273 -88 -6 4 -25
8 -42 8 -46 0 -152 59 -197 110 -80 91 -93 128 -93 260 0 89 4 112 24 153 22
45 74 107 90 107 4 0 14 -13 23 -28z m2929 -75 c30 -57 33 -70 33 -152 0 -87
-18 -161 -49 -204 -31 -44 -137 -141 -152 -141 -10 0 -30 -8 -43 -17 -36 -25
-199 -25 -255 0 -132 60 -133 66 -32 167 39 40 82 86 94 102 11 16 73 83 137
149 64 65 116 124 116 129 0 6 7 10 15 10 8 0 15 7 15 15 0 8 6 15 14 15 8 0
17 7 20 16 6 15 9 14 30 -5 13 -12 38 -50 57 -84z"/>
</g>
</svg>
