<?xml version="1.0" standalone="no"?>
<!DOCTYPE svg PUBLIC "-//W3C//DTD SVG 20010904//EN"
 "http://www.w3.org/TR/2001/REC-SVG-20010904/DTD/svg10.dtd">
<svg version="1.0" xmlns="http://www.w3.org/2000/svg"
 width="300.000000pt" height="109.000000pt" viewBox="0 0 300.000000 109.000000"
 preserveAspectRatio="xMidYMid meet">
<metadata>
Created by potrace 1.10, written by Peter Selinger 2001-2011
</metadata>
<g transform="translate(0.000000,109.000000) scale(0.100000,-0.100000)"
fill="#000000" stroke="none">
<path d="M1410 1030 c0 -5 6 -13 13 -17 6 -5 25 -23 41 -40 l29 -32 -32 -40
c-90 -113 -112 -280 -53 -409 17 -38 74 -117 102 -140 139 -118 344 -128 492
-26 l39 27 28 -27 29 -27 22 31 22 31 22 -20 c35 -33 122 -71 186 -83 162 -28
353 70 420 217 67 147 47 318 -50 429 l-33 37 43 44 c24 25 41 47 38 50 -3 3
-36 -30 -73 -72 -38 -43 -121 -132 -184 -198 -64 -67 -183 -194 -266 -284
l-149 -163 -91 94 c-117 122 -456 486 -526 565 -53 60 -69 73 -69 53z m113
-134 c4 4 4 -3 2 -16 -4 -19 -2 -20 12 -8 9 7 14 8 11 3 -4 -6 3 -22 14 -35
11 -14 16 -19 12 -11 -5 9 -3 12 5 7 6 -4 21 -28 33 -52 16 -36 23 -42 34 -33
12 10 13 8 8 -6 -5 -12 -4 -16 3 -12 11 7 -7 -57 -20 -69 -4 -4 -7 -12 -7 -18
0 -6 5 -4 11 4 9 12 10 11 6 -7 -3 -11 3 -32 12 -46 17 -26 91 -92 77 -68 -7
11 -6 12 5 5 22 -14 62 -12 80 3 14 12 21 10 48 -17 17 -18 29 -36 25 -41 -3
-5 -2 -8 3 -7 13 4 82 -62 100 -96 8 -15 10 -26 5 -22 -5 3 -17 -3 -26 -13 -9
-10 -31 -21 -47 -25 -17 -3 -28 -9 -25 -14 2 -4 -5 -9 -17 -10 -12 0 -44 -5
-70 -10 -28 -5 -50 -5 -53 0 -3 5 -14 6 -23 3 -10 -3 -38 2 -62 11 -24 9 -51
17 -59 18 -28 4 -101 59 -96 72 3 7 0 16 -6 20 -7 4 -8 3 -4 -4 4 -7 3 -12 -3
-12 -14 0 -54 56 -78 110 -23 51 -37 124 -22 115 5 -4 5 5 -1 21 -14 35 -9
114 7 114 7 0 10 6 7 14 -3 8 0 25 7 38 7 13 12 27 11 31 -1 5 2 6 8 2 5 -3
10 1 10 10 0 28 31 67 45 55 6 -5 15 -7 18 -4z m1190 -28 c-2 -5 0 -8 4 -8 14
0 42 -54 53 -106 18 -77 11 -232 -10 -219 -5 3 -6 -3 -3 -13 2 -11 -2 -26 -11
-34 -8 -9 -12 -18 -9 -22 4 -3 1 -6 -5 -6 -7 0 -11 -3 -10 -7 2 -5 -5 -19 -14
-31 -11 -17 -22 -22 -36 -18 -11 4 -23 2 -27 -3 -4 -7 1 -8 12 -4 17 7 17 6 1
-17 -9 -14 -24 -24 -33 -23 -9 0 -14 -1 -11 -4 11 -11 -46 -48 -94 -60 -35 -9
-162 -13 -174 -5 -6 3 -19 7 -30 8 -47 5 -116 38 -116 54 0 6 -8 10 -17 11
-11 0 -13 3 -5 6 6 2 11 8 9 11 -1 4 12 23 31 42 18 19 31 28 29 20 -2 -8 -2
-12 0 -7 3 4 10 4 15 1 7 -4 8 -2 4 5 -10 16 71 112 89 104 8 -3 12 -9 9 -14
-3 -5 2 -6 11 -3 8 4 22 1 29 -5 10 -8 16 -9 21 -1 3 5 17 10 30 10 13 0 31 9
39 21 8 12 18 19 23 16 5 -3 9 2 10 11 1 9 5 38 9 65 4 28 3 47 -3 47 -5 0
-10 8 -11 18 -1 22 19 63 28 57 4 -3 14 3 21 12 12 14 12 16 -1 9 -8 -4 -4 2
9 14 19 16 26 18 33 8 7 -9 8 -4 5 14 -3 20 0 25 11 20 11 -4 13 -2 7 8 -6 10
-4 12 9 7 11 -4 15 -3 11 4 -4 6 1 18 11 28 16 15 20 15 35 1 8 -8 14 -18 12
-22z m-1079 -94 c3 -8 2 -12 -4 -9 -6 3 -10 10 -10 16 0 14 7 11 14 -7z m134
-126 c69 -71 70 -73 49 -85 -40 -22 -77 -15 -113 21 -36 36 -42 67 -22 111 6
14 12 25 13 25 2 0 34 -33 73 -72z m742 1 c0 -52 -33 -89 -85 -95 -25 -4 -46
-1 -57 8 -16 12 -12 19 49 87 61 67 68 72 80 55 7 -10 13 -35 13 -55z"/>
<path d="M2730 821 c0 -6 4 -13 10 -16 6 -3 7 1 4 9 -7 18 -14 21 -14 7z"/>
<path d="M2335 531 c-3 -5 -2 -12 3 -15 5 -3 9 1 9 9 0 17 -3 19 -12 6z"/>
<path d="M2307 492 c-15 -17 -15 -18 6 -19 12 0 16 1 9 4 -10 4 -10 8 -1 19
17 20 5 17 -14 -4z"/>
<path d="M2534 314 c-18 -14 -18 -15 4 -4 12 6 22 13 22 15 0 8 -5 6 -26 -11z"/>
<path d="M2443 615 c0 -8 4 -12 9 -9 5 3 6 10 3 15 -9 13 -12 11 -12 -6z"/>
<path d="M561 723 c0 -5 35 -77 78 -162 l77 -154 26 44 c14 24 29 55 33 69 7
22 11 18 43 -45 l35 -70 76 153 c41 83 81 152 88 152 10 0 13 -36 13 -150 l0
-150 120 0 c78 0 120 4 120 11 0 7 -39 9 -115 7 l-115 -3 0 153 c0 152 0 153
-22 150 -17 -2 -37 -34 -94 -147 l-72 -144 -30 59 -30 59 39 77 c22 43 39 82
39 88 0 6 -34 10 -85 10 -51 0 -85 -4 -85 -10 0 -6 17 -45 39 -88 l39 -77 -30
-58 -29 -58 -71 145 c-62 125 -90 169 -87 139z m289 -18 c0 -2 -15 -34 -32
-70 l-32 -65 -33 62 c-18 35 -32 66 -33 71 0 4 29 7 65 7 36 0 65 -2 65 -5z"/>
<path d="M339 696 c-127 -87 -67 -286 86 -286 82 0 145 54 161 137 8 44 -30
121 -75 150 -48 32 -124 31 -172 -1z m169 -12 c59 -39 79 -130 42 -191 -28
-46 -64 -66 -120 -67 -109 -2 -178 113 -127 210 23 44 90 77 142 69 22 -3 50
-13 63 -21z"/>
<path d="M637 456 c-4 -10 -3 -15 3 -11 6 3 10 -2 11 -12 0 -10 3 -13 5 -6 3
7 1 20 -4 29 -8 15 -9 15 -15 0z"/>
<path d="M556 432 c-3 -5 1 -9 9 -9 8 0 12 4 9 9 -3 4 -7 8 -9 8 -2 0 -6 -4
-9 -8z"/>
<path d="M450 325 c-11 -13 -8 -21 20 -50 31 -32 33 -55 5 -55 -8 0 -18 7 -23
16 -5 10 -12 12 -15 7 -10 -16 29 -46 51 -39 35 11 35 37 0 73 -23 24 -29 36
-21 44 8 8 13 8 17 0 4 -6 14 -11 23 -11 13 0 13 3 3 15 -16 19 -44 19 -60 0z"/>
<path d="M540 270 l0 -70 45 0 c25 0 45 5 45 10 0 6 -16 10 -35 10 -31 0 -35
3 -35 25 0 22 4 25 35 25 19 0 35 5 35 11 0 8 -12 10 -35 6 -32 -5 -35 -4 -35
18 0 22 3 23 35 18 23 -4 35 -2 35 6 0 6 -18 11 -45 11 l-45 0 0 -70z"/>
<path d="M650 270 l0 -70 35 0 c19 0 35 5 35 10 0 6 -12 10 -27 10 -28 0 -28
0 -25 60 3 39 0 60 -7 60 -7 0 -11 -26 -11 -70z"/>
<path d="M740 270 l0 -70 35 0 c19 0 35 5 35 10 0 6 -12 10 -27 10 -28 0 -28
0 -25 60 3 39 0 60 -7 60 -7 0 -11 -26 -11 -70z"/>
<path d="M830 270 l0 -70 40 0 c22 0 40 5 40 10 0 6 -16 10 -35 10 -31 0 -35
3 -35 25 0 22 4 25 35 25 19 0 35 5 35 11 0 6 -14 9 -32 7 -27 -2 -33 0 -33
17 0 17 6 19 33 17 18 -2 32 1 32 7 0 6 -18 11 -40 11 l-40 0 0 -70z"/>
<path d="M931 270 c0 -38 4 -70 9 -70 6 0 10 17 10 38 l1 37 30 -37 c38 -47
60 -50 24 -4 -25 33 -25 34 -5 39 11 3 23 12 26 21 10 26 -15 46 -57 46 l-38
0 0 -70z m74 34 c0 -13 -8 -20 -27 -22 -24 -3 -28 0 -28 22 0 21 4 24 28 22
19 -2 27 -9 27 -22z"/>
<path d="M1458 213 c7 -3 16 -2 19 1 4 3 -2 6 -13 5 -11 0 -14 -3 -6 -6z"/>
<path d="M1568 213 c7 -3 16 -2 19 1 4 3 -2 6 -13 5 -11 0 -14 -3 -6 -6z"/>
<path d="M1668 213 c7 -3 16 -2 19 1 4 3 -2 6 -13 5 -11 0 -14 -3 -6 -6z"/>
<path d="M2498 213 c6 -2 18 -2 25 0 6 3 1 5 -13 5 -14 0 -19 -2 -12 -5z"/>
<path d="M2858 213 c6 -2 18 -2 25 0 6 3 1 5 -13 5 -14 0 -19 -2 -12 -5z"/>
</g>
</svg>
