<?xml version="1.0" standalone="no"?>
<!DOCTYPE svg PUBLIC "-//W3C//DTD SVG 20010904//EN"
 "http://www.w3.org/TR/2001/REC-SVG-20010904/DTD/svg10.dtd">
<svg version="1.0" xmlns="http://www.w3.org/2000/svg"
 width="224.000000pt" height="119.000000pt" viewBox="0 0 224.000000 119.000000"
 preserveAspectRatio="xMidYMid meet">
<metadata>
Created by potrace 1.10, written by Peter Selinger 2001-2011
</metadata>
<g transform="translate(0.000000,119.000000) scale(0.100000,-0.100000)"
fill="#f79108" stroke="none">
<path d="M314 1078 c3 -29 16 -51 55 -94 l52 -57 -25 -26 c-103 -108 -150
-296 -111 -444 18 -71 62 -160 75 -152 13 8 7 45 -9 54 -6 4 -9 15 -5 24 3 10
1 17 -6 17 -6 0 -8 -5 -4 -12 4 -7 3 -8 -5 -4 -6 4 -9 11 -6 16 3 4 -2 21 -10
36 -10 19 -11 32 -4 40 6 8 6 14 0 18 -5 3 -11 1 -13 -6 -2 -6 -3 8 -2 33 0
24 2 64 3 88 1 40 2 42 19 30 15 -13 16 -12 3 4 -13 16 -12 22 3 50 l18 32
-21 -25 c-26 -31 -27 -19 -2 29 10 20 24 50 31 68 7 18 19 38 28 45 12 10 14
10 8 1 -4 -7 -4 -13 -1 -13 11 0 35 28 35 42 0 10 -3 9 -11 -2 -9 -13 -10 -13
-6 0 7 26 45 18 78 -16 18 -19 29 -34 25 -34 -5 0 -3 -7 4 -15 7 -8 17 -12 23
-8 6 3 7 1 3 -6 -6 -9 -11 -9 -22 0 -8 6 -17 9 -21 5 -3 -3 -1 -6 6 -6 7 0 9
-5 6 -10 -4 -6 -10 -8 -14 -6 -4 3 -8 -1 -8 -8 0 -8 6 -12 14 -9 7 3 13 9 13
13 0 14 25 6 56 -18 20 -15 23 -20 9 -16 -11 3 -16 2 -10 -3 12 -9 13 -33 2
-50 -4 -6 -3 -14 2 -17 5 -4 12 -2 16 3 9 15 37 0 31 -16 -3 -8 -1 -11 4 -8 6
3 10 -1 10 -10 0 -9 -4 -13 -10 -10 -9 6 -16 -27 -10 -50 1 -5 3 -22 3 -37 0
-15 5 -25 10 -21 5 3 6 -4 2 -17 -5 -15 -4 -20 4 -16 6 4 11 2 11 -4 0 -6 5
-8 12 -4 7 5 8 3 2 -7 -17 -28 -12 -37 17 -34 16 2 31 0 34 -5 3 -5 13 -6 21
-3 9 3 20 0 24 -7 7 -11 15 -10 44 4 19 9 38 21 42 27 4 7 13 4 25 -7 10 -9
16 -21 12 -27 -4 -6 -1 -7 7 -2 10 6 12 4 7 -8 -4 -10 -2 -14 6 -11 8 3 13 -4
13 -16 0 -11 -4 -20 -8 -20 -4 0 -8 5 -8 12 0 6 -3 8 -6 5 -4 -4 -1 -14 6 -22
9 -11 15 -13 20 -4 9 13 50 -5 50 -22 0 -6 -5 -7 -12 -3 -7 5 -8 3 -4 -5 5 -7
14 -10 22 -7 8 3 14 1 14 -3 0 -5 -6 -12 -12 -14 -10 -4 -10 -6 0 -6 7 -1 11
-5 7 -10 -3 -6 4 -8 15 -6 25 5 81 -41 73 -60 -2 -8 -12 -11 -20 -8 -11 4 -14
2 -9 -6 5 -7 -3 -15 -23 -22 -17 -6 -29 -14 -27 -18 3 -4 -11 -5 -30 -3 -22 3
-34 0 -34 -8 0 -7 8 -9 23 -5 19 5 20 4 5 -5 -13 -8 -24 -8 -37 0 -14 7 -22 7
-27 -2 -4 -7 -3 -8 4 -4 7 4 12 3 12 -3 0 -5 -33 -13 -72 -18 -80 -8 -84 -8
-113 2 -16 6 -17 5 -5 -4 9 -7 10 -11 3 -11 -6 0 -15 5 -18 10 -3 6 -17 10
-30 10 -13 0 -26 4 -30 10 -3 5 -12 7 -19 4 -8 -3 -31 2 -52 11 -34 15 -36 18
-20 24 19 7 19 8 -2 13 -14 4 -20 2 -16 -4 4 -6 1 -8 -7 -6 -8 3 -13 10 -12
16 2 6 -4 9 -12 6 -8 -4 -15 -1 -15 4 0 6 -9 14 -20 17 -11 3 -20 13 -20 21 0
9 -5 12 -12 8 -7 -5 -8 -3 -4 5 5 7 14 10 20 8 7 -3 13 1 13 9 0 7 -4 11 -9 8
-25 -16 -46 -11 -57 13 -9 19 -15 23 -23 15 -15 -15 42 -82 113 -132 89 -62
156 -83 274 -84 119 -1 177 16 276 79 l66 43 24 -29 c13 -16 27 -29 32 -29 5
0 19 13 33 29 l25 30 63 -43 c90 -60 160 -81 276 -80 72 0 110 6 159 23 219
77 361 311 323 532 -16 92 -45 160 -100 233 l-44 59 53 53 c29 29 50 56 48 59
-3 3 -41 -34 -85 -82 -43 -49 -112 -123 -154 -166 -48 -50 -75 -87 -75 -102
-1 -19 2 -21 17 -11 10 6 14 12 9 14 -5 2 -1 12 10 23 11 11 25 17 31 13 8 -5
9 -1 4 12 -4 10 -4 15 0 11 11 -11 33 13 27 29 -3 8 -1 14 5 14 21 0 21 -30 0
-44 -12 -9 -20 -18 -17 -20 2 -2 14 4 27 14 20 16 21 22 12 40 -13 25 -4 42
11 20 8 -12 9 -11 5 6 -4 14 3 29 25 50 18 16 29 23 25 17 -4 -7 -2 -13 3 -13
11 0 15 13 12 35 -1 6 5 2 13 -8 17 -22 10 -51 -10 -43 -27 10 -13 -4 19 -19
28 -14 30 -14 13 0 -11 8 -14 15 -8 15 7 0 15 0 20 0 15 0 8 -26 -12 -43 -17
-13 -17 -16 -4 -11 13 4 21 -1 28 -21 6 -15 13 -25 17 -22 3 4 -2 18 -11 32
-13 19 -14 25 -3 25 15 0 40 -67 31 -82 -3 -5 -2 -8 3 -7 20 4 24 -2 12 -18
-8 -9 -9 -14 -3 -10 7 4 14 -2 17 -13 3 -11 1 -22 -4 -26 -5 -3 -2 -18 6 -34
17 -32 19 -44 7 -36 -4 2 -8 -4 -8 -15 0 -10 3 -19 6 -19 3 0 4 -18 2 -40 -2
-22 -8 -40 -12 -40 -4 0 -8 -6 -7 -12 0 -7 -1 -22 -1 -32 -2 -20 -2 -20 -17 0
-17 22 -20 12 -5 -17 7 -13 7 -19 1 -19 -6 0 -13 11 -17 25 -4 14 -9 24 -11
21 -3 -3 2 -23 11 -45 18 -48 13 -79 -12 -59 -13 11 -14 10 -7 -11 4 -13 3
-21 -2 -18 -5 3 -14 -7 -21 -23 -13 -28 -25 -32 -50 -16 -7 4 -16 5 -19 2 -4
-3 -1 -6 7 -6 10 0 10 -4 -1 -17 -10 -11 -10 -14 -1 -9 6 4 12 3 12 -3 0 -13
-37 -24 -51 -15 -7 4 -9 3 -5 -4 10 -17 -17 -21 -36 -5 -14 13 -16 13 -14 -1
4 -30 23 -40 41 -22 9 9 19 16 23 16 4 0 -5 -12 -20 -25 -27 -23 -29 -23 -65
-8 -21 8 -35 12 -31 8 9 -9 -27 -44 -59 -56 -14 -5 -42 -9 -62 -9 -20 1 -51
-1 -69 -4 -19 -3 -30 -1 -27 4 4 6 -7 8 -24 6 -19 -2 -28 1 -24 7 3 6 1 7 -5
3 -6 -4 -22 -1 -34 6 -13 7 -25 13 -28 13 -49 12 -60 18 -50 30 8 9 6 14 -4
18 -9 4 -18 1 -22 -5 -5 -7 -2 -8 6 -3 8 5 11 4 6 -3 -4 -6 -13 -9 -22 -5 -13
5 -13 8 2 24 15 17 13 24 -8 20 -5 0 -8 4 -8 9 0 18 5 25 15 22 5 -2 7 -1 4 3
-4 3 7 21 24 40 31 35 52 41 26 8 -12 -16 -12 -17 2 -6 9 7 19 10 22 6 10 -10
8 6 -3 26 -7 14 -4 23 13 37 14 12 17 13 9 3 -6 -9 -8 -20 -4 -24 4 -5 0 -5
-8 0 -8 5 -12 4 -7 0 4 -5 15 -10 24 -11 10 -2 12 1 5 8 -12 12 12 63 34 72
10 4 14 1 11 -6 -2 -7 -10 -12 -16 -10 -7 1 -10 -2 -6 -8 4 -6 3 -17 -2 -23
-4 -7 0 -4 11 8 10 11 23 19 28 17 5 -1 4 8 -3 20 -9 16 -9 23 0 26 6 2 9 8 5
13 -9 15 3 10 17 -8 8 -9 9 -14 3 -10 -6 3 -11 0 -11 -8 0 -13 4 -12 19 2 19
17 25 6 8 -15 -7 -9 -7 -9 2 -2 18 15 51 13 43 -2 -4 -7 -1 -6 7 2 7 8 27 16
43 16 17 1 39 5 49 10 15 6 17 4 11 -7 -6 -11 -5 -12 5 -2 20 19 4 28 -25 15
-33 -15 -32 -11 6 17 18 13 29 20 26 15 -3 -5 6 -10 19 -10 20 -2 21 0 9 13
-16 15 -21 38 -7 29 5 -3 9 0 10 7 8 78 8 93 -2 100 -8 5 -7 9 2 15 10 7 10
11 -3 22 -13 11 -15 10 -9 -6 4 -15 4 -16 -4 -5 -6 8 -8 26 -5 40 l4 25 -22
-19 c-12 -11 -110 -114 -217 -230 -108 -116 -214 -229 -237 -253 l-41 -43
-134 143 c-74 79 -155 165 -180 193 -147 162 -224 234 -237 224 -7 -6 -10 -16
-7 -21 4 -6 10 -5 16 3 8 12 9 12 6 0 -6 -20 -35 -22 -35 -2 0 9 7 22 16 29
14 11 14 13 1 25 -12 10 -180 189 -257 276 -12 13 -20 31 -18 40 2 10 -1 24
-6 32 -5 9 -7 1 -5 -23z m331 -418 c-6 -9 -9 -9 -16 1 -10 17 0 34 13 21 6 -6
7 -16 3 -22z m188 -168 c22 -10 3 -25 -54 -42 -37 -11 -103 20 -123 59 -20 38
-21 100 -1 128 14 21 17 19 92 -60 43 -45 81 -83 86 -85z m837 86 c0 -82 -57
-134 -137 -125 -75 8 -75 19 2 97 58 58 71 67 84 57 14 -11 14 -10 2 6 -11 14
-11 20 0 33 11 14 15 13 31 -8 9 -13 18 -40 18 -60z m-986 -130 c-3 -4 -9 -8
-15 -8 -5 0 -9 4 -9 8 0 5 7 9 15 9 8 0 12 -4 9 -9z m316 -154 c0 -8 -5 -12
-10 -9 -6 4 -8 11 -5 16 9 14 15 11 15 -7z m890 -50 c0 -8 -19 -13 -24 -6 -3
5 1 9 9 9 8 0 15 -2 15 -3z m-608 -28 c7 4 8 2 4 -4 -5 -8 -13 -9 -25 -2 -10
5 -22 6 -27 2 -5 -4 -2 1 6 11 12 16 14 17 22 2 5 -8 14 -12 20 -9z m444 -71
c-23 -18 -36 -19 -36 -4 0 5 5 7 10 4 6 -3 10 -1 10 4 0 6 8 11 18 11 15 -1
15 -2 -2 -15z"/>
<path d="M740 490 c-9 -6 -10 -10 -3 -10 6 0 15 5 18 10 8 12 4 12 -15 0z"/>
<path d="M1574 538 l-19 -23 23 19 c21 18 27 26 19 26 -2 0 -12 -10 -23 -22z"/>
<path d="M1580 515 c-7 -9 -8 -15 -2 -15 5 0 12 7 16 15 3 8 4 15 2 15 -2 0
-9 -7 -16 -15z"/>
<path d="M1568 483 c7 -3 16 -2 19 1 4 3 -2 6 -13 5 -11 0 -14 -3 -6 -6z"/>
<path d="M1971 1096 c-10 -11 -9 -14 1 -12 14 2 23 15 15 22 -2 2 -10 -2 -16
-10z"/>
<path d="M1925 1060 c-3 -6 1 -7 9 -4 18 7 21 14 7 14 -6 0 -13 -4 -16 -10z"/>
<path d="M464 937 c-4 -7 -4 -9 1 -5 4 4 15 -1 24 -10 9 -10 13 -13 9 -8 -14
18 -8 24 15 19 12 -3 20 -3 17 0 -11 12 -60 15 -66 4z"/>
<path d="M1955 901 c-4 -7 0 -8 11 -4 11 4 15 3 10 -5 -3 -6 -2 -13 3 -16 5
-4 8 2 7 11 -3 20 -21 28 -31 14z"/>
<path d="M515 891 c-3 -5 -2 -12 3 -15 5 -3 9 1 9 9 0 17 -3 19 -12 6z"/>
<path d="M1773 877 c-1 -11 -1 -18 0 -16 2 2 8 11 15 20 9 12 9 16 -1 16 -7 0
-14 -9 -14 -20z"/>
<path d="M440 872 c0 -6 5 -14 11 -18 7 -4 0 -18 -18 -37 -15 -17 -21 -26 -12
-19 9 6 19 8 23 4 4 -4 7 -2 6 3 -5 23 1 28 13 11 11 -15 15 -15 24 -4 9 10 5
20 -18 42 -16 16 -29 24 -29 18z m50 -47 c0 -12 -19 -12 -23 0 -4 9 -1 12 9 8
7 -3 14 -7 14 -8z"/>
<path d="M1732 846 c13 -8 11 -13 -11 -34 l-26 -24 29 22 c36 25 41 46 13 46
-16 0 -17 -2 -5 -10z"/>
<path d="M1834 849 c-11 -18 14 -35 29 -20 10 10 9 11 -6 5 -13 -5 -16 -2 -11
10 7 18 -1 22 -12 5z"/>
<path d="M414 828 l-19 -23 23 19 c21 18 27 26 19 26 -2 0 -12 -10 -23 -22z"/>
<path d="M1696 828 c3 -5 10 -6 15 -3 13 9 11 12 -6 12 -8 0 -12 -4 -9 -9z"/>
<path d="M372 825 c4 -4 3 -16 -3 -27 -6 -11 -9 -22 -6 -24 2 -2 9 7 15 21 9
18 8 26 -1 31 -7 4 -9 4 -5 -1z"/>
<path d="M1826 785 c-3 -9 -6 -22 -5 -28 0 -7 5 -1 10 12 5 13 8 26 5 28 -2 2
-6 -3 -10 -12z"/>
<path d="M1655 780 c-4 -6 -11 -7 -17 -4 -7 4 -8 2 -4 -5 6 -9 11 -9 22 0 14
11 18 19 10 19 -3 0 -8 -5 -11 -10z"/>
<path d="M1669 763 c-13 -16 -12 -17 4 -4 16 13 21 21 13 21 -2 0 -10 -8 -17
-17z"/>
<path d="M1840 759 c0 -5 5 -7 10 -4 6 3 10 8 10 11 0 2 -4 4 -10 4 -5 0 -10
-5 -10 -11z"/>
<path d="M515 750 c-3 -6 1 -7 9 -4 18 7 21 14 7 14 -6 0 -13 -4 -16 -10z"/>
<path d="M1784 729 c-19 -22 -19 -22 4 -8 12 8 22 17 22 21 0 12 -6 9 -26 -13z"/>
<path d="M249 728 c-5 -18 -6 -38 -1 -34 7 8 12 36 6 36 -2 0 -4 -1 -5 -2z"/>
<path d="M1720 709 c0 -5 5 -7 10 -4 6 3 10 8 10 11 0 2 -4 4 -10 4 -5 0 -10
-5 -10 -11z"/>
<path d="M1585 699 c-4 -6 -5 -12 -2 -15 2 -3 7 2 10 11 7 17 1 20 -8 4z"/>
<path d="M1720 679 c0 -5 5 -7 10 -4 6 3 10 8 10 11 0 2 -4 4 -10 4 -5 0 -10
-5 -10 -11z"/>
<path d="M1756 663 c-6 -14 -5 -15 5 -6 7 7 10 15 7 18 -3 3 -9 -2 -12 -12z"/>
<path d="M571 635 c9 -11 19 -27 22 -35 5 -13 6 -13 6 1 1 9 -9 24 -21 35 -23
19 -23 19 -7 -1z"/>
<path d="M1470 625 c0 -2 6 -8 13 -14 10 -8 14 -7 14 2 0 8 -6 14 -14 14 -7 0
-13 -1 -13 -2z"/>
<path d="M311 604 c0 -11 3 -14 6 -6 3 7 2 16 -1 19 -3 4 -6 -2 -5 -13z"/>
<path d="M566 597 c3 -10 9 -15 12 -12 3 3 0 11 -7 18 -10 9 -11 8 -5 -6z"/>
<path d="M588 574 c-2 -5 -4 -16 -3 -24 5 -46 5 -46 15 -28 6 9 6 26 2 39 -5
12 -11 18 -14 13z"/>
<path d="M306 545 c4 -8 8 -15 10 -15 2 0 4 7 4 15 0 8 -4 15 -10 15 -5 0 -7
-7 -4 -15z"/>
<path d="M2061 464 c0 -11 3 -14 6 -6 3 7 2 16 -1 19 -3 4 -6 -2 -5 -13z"/>
<path d="M1343 447 c-3 -5 -2 -11 1 -14 3 -4 6 -1 6 6 0 7 4 10 8 7 4 -2 14
-1 22 4 11 7 9 9 -8 7 -13 -1 -26 -5 -29 -10z"/>
<path d="M1310 430 c-9 -6 -10 -10 -3 -10 6 0 15 5 18 10 8 12 4 12 -15 0z"/>
<path d="M826 408 c3 -5 10 -6 15 -3 13 9 11 12 -6 12 -8 0 -12 -4 -9 -9z"/>
<path d="M1926 381 c-3 -4 3 -16 14 -26 11 -10 20 -13 20 -8 0 6 -7 14 -16 17
-8 3 -12 10 -9 16 3 5 4 10 1 10 -3 0 -7 -4 -10 -9z"/>
<path d="M1490 346 c0 -2 7 -7 16 -10 8 -3 12 -2 9 4 -6 10 -25 14 -25 6z"/>
<path d="M1425 330 c-3 -6 1 -7 9 -4 18 7 21 14 7 14 -6 0 -13 -4 -16 -10z"/>
<path d="M1883 297 c0 -8 6 -14 14 -14 9 0 10 4 2 14 -6 7 -12 13 -14 13 -1 0
-2 -6 -2 -13z"/>
<path d="M1205 291 c-3 -5 -2 -12 3 -15 5 -3 9 1 9 9 0 17 -3 19 -12 6z"/>
<path d="M1320 270 c0 -5 9 -8 20 -7 21 1 18 10 -5 13 -8 1 -15 -2 -15 -6z"/>
<path d="M976 243 c-6 -14 -5 -15 5 -6 7 7 10 15 7 18 -3 3 -9 -2 -12 -12z"/>
<path d="M1304 243 c2 -10 6 -17 10 -16 15 3 16 11 2 22 -12 10 -14 9 -12 -6z"/>
<path d="M1356 235 c-11 -8 -14 -15 -7 -15 7 0 9 -5 5 -12 -5 -7 -3 -8 5 -4 7
5 10 11 7 14 -3 3 -1 11 5 19 15 17 9 16 -15 -2z"/>
<path d="M1956 233 c-5 -12 -4 -13 7 -5 8 7 16 9 19 6 3 -3 8 -1 11 3 3 5 -3
9 -13 10 -10 1 -21 -5 -24 -14z"/>
<path d="M977 209 c10 -10 9 -15 -5 -26 -15 -13 -15 -13 6 -3 26 13 28 25 5
35 -14 5 -15 4 -6 -6z"/>
<path d="M1883 181 c-28 -23 -29 -30 -5 -27 9 2 17 8 17 15 0 6 7 16 15 21 8
5 11 10 5 10 -5 -1 -20 -9 -32 -19z"/>
<path d="M590 170 c25 -8 25 -8 -5 -10 -29 -2 -29 -2 -5 -9 25 -7 52 7 43 22
-2 4 -16 7 -31 6 l-27 -1 25 -8z"/>
<path d="M1340 176 c0 -2 7 -9 15 -16 13 -11 14 -10 9 4 -5 14 -24 23 -24 12z"/>
<path d="M1546 138 c5 -7 2 -9 -8 -6 -8 4 -15 0 -15 -7 0 -10 5 -11 19 -4 16
9 17 29 2 29 -3 0 -2 -5 2 -12z"/>
<path d="M490 123 c6 -14 16 -20 25 -17 18 7 20 17 3 11 -7 -2 -19 3 -26 12
-11 14 -12 13 -2 -6z"/>
<path d="M807 129 c7 -7 15 -10 18 -7 3 3 -2 9 -12 12 -14 6 -15 5 -6 -5z"/>
<path d="M973 95 c0 -7 6 -11 14 -8 7 3 13 6 13 8 0 2 -6 5 -13 8 -8 3 -14 -1
-14 -8z"/>
<path d="M1368 63 c6 -2 18 -2 25 0 6 3 1 5 -13 5 -14 0 -19 -2 -12 -5z"/>
</g>
</svg>
