<?xml version="1.0" standalone="no"?>
<!DOCTYPE svg PUBLIC "-//W3C//DTD SVG 20010904//EN"
 "http://www.w3.org/TR/2001/REC-SVG-20010904/DTD/svg10.dtd">
<svg version="1.0" xmlns="http://www.w3.org/2000/svg"
 width="300.000000pt" height="89.000000pt" viewBox="0 0 300.000000 89.000000"
 preserveAspectRatio="xMidYMid meet">
<metadata>
Created by potrace 1.10, written by Peter Selinger 2001-2011
</metadata>
<g transform="translate(0.000000,89.000000) scale(0.100000,-0.100000)"
fill="#000000" stroke="none">
<path d="M1410 830 c0 -5 6 -13 13 -17 6 -5 25 -22 40 -39 l29 -32 -36 -49
c-45 -63 -61 -102 -75 -180 -31 -171 63 -349 226 -426 62 -29 76 -32 163 -31
105 1 153 14 227 64 l46 31 27 -26 27 -26 22 27 21 27 38 -26 c81 -56 130 -71
232 -71 76 0 107 4 153 23 81 32 168 115 209 200 30 61 33 73 33 171 0 92 -3
112 -26 160 -14 31 -41 73 -59 94 l-33 37 43 44 c24 25 41 47 38 50 -3 3 -38
-32 -78 -77 -40 -46 -132 -146 -205 -223 -72 -77 -156 -167 -186 -200 -29 -33
-88 -95 -129 -138 l-75 -78 -96 98 c-53 54 -114 118 -135 143 -21 25 -97 106
-169 181 -71 75 -161 173 -200 217 -68 78 -85 93 -85 72z m113 -134 c4 4 4 -3
2 -16 -4 -19 -2 -20 12 -8 9 7 14 8 11 3 -4 -6 3 -22 14 -35 11 -14 17 -19 13
-12 -12 23 2 12 35 -30 19 -23 28 -38 22 -34 -8 5 -10 2 -6 -9 5 -12 9 -13 20
-4 12 10 13 8 8 -6 -5 -13 -4 -16 4 -11 7 4 12 3 12 -3 0 -5 -4 -13 -10 -16
-5 -3 -10 -17 -10 -31 0 -13 -4 -24 -10 -24 -5 0 -10 -5 -10 -11 0 -5 5 -7 12
-3 7 5 9 2 6 -8 -4 -8 4 -33 18 -54 13 -22 24 -35 24 -30 0 5 11 -1 25 -14 14
-13 25 -19 25 -14 0 5 5 2 10 -6 7 -11 10 -11 10 -2 0 7 5 10 10 7 6 -4 24 0
40 9 19 9 30 11 30 4 0 -6 3 -8 6 -5 8 7 50 -44 46 -55 -1 -5 2 -7 6 -6 12 4
82 -63 99 -96 8 -15 10 -25 4 -22 -5 4 -15 -3 -21 -14 -6 -11 -15 -20 -21 -20
-6 0 -8 4 -5 8 2 4 -4 8 -14 8 -13 0 -16 -4 -10 -12 13 -14 2 -24 -18 -17 -9
4 -13 2 -9 -4 4 -7 0 -10 -10 -8 -10 1 -23 -2 -30 -7 -16 -13 -142 -12 -176 1
-16 6 -33 8 -39 5 -7 -5 -8 -2 -3 6 6 10 4 12 -8 7 -9 -3 -18 0 -21 9 -3 8
-11 14 -18 14 -9 0 -8 -3 2 -10 10 -7 11 -10 2 -10 -7 0 -15 7 -18 15 -4 8 -9
13 -13 11 -3 -1 -31 22 -61 52 -30 30 -46 49 -36 41 18 -13 18 -12 8 6 -6 11
-23 31 -37 44 -14 13 -23 26 -21 29 3 2 0 14 -6 25 -13 24 -21 217 -9 217 5 0
14 20 21 45 7 24 16 42 21 39 5 -3 9 2 9 11 0 10 5 13 12 9 6 -4 9 -3 6 2 -3
5 -2 20 3 33 7 18 12 21 23 12 7 -6 16 -8 19 -5z m1172 4 c-3 -6 1 -13 9 -16
9 -3 14 -10 11 -14 -2 -4 4 -15 15 -25 24 -21 54 -118 47 -146 -3 -11 -1 -16
5 -13 6 4 7 -2 3 -17 -4 -12 -8 -43 -9 -68 0 -28 -7 -51 -16 -59 -8 -8 -10
-11 -3 -7 9 4 10 -1 2 -25 -6 -16 -15 -30 -21 -30 -5 0 -6 -4 -3 -10 3 -5 1
-10 -4 -10 -6 0 -11 -6 -11 -13 0 -15 -74 -97 -87 -97 -6 0 -22 -9 -35 -20
-34 -26 -82 -45 -72 -27 4 6 -1 5 -12 -4 -23 -20 -149 -26 -169 -9 -9 7 -15 8
-20 1 -4 -7 -12 -7 -23 -2 -9 5 -25 12 -35 15 -11 4 -15 11 -11 17 4 8 3 9 -4
5 -18 -11 -71 24 -69 45 1 10 3 16 5 14 3 -2 13 7 24 20 11 14 25 22 31 18 7
-4 8 0 3 12 -6 16 -4 16 11 4 13 -11 15 -11 9 -1 -9 15 31 65 45 57 4 -3 11 0
15 6 4 8 3 9 -4 5 -21 -12 -13 10 10 30 12 10 19 14 15 9 -6 -11 9 -14 82 -16
35 -1 48 3 63 20 9 13 21 20 26 17 4 -2 9 3 10 12 1 9 5 36 8 60 4 30 2 49
-10 67 -9 14 -12 25 -7 25 5 0 13 9 16 20 4 11 11 18 16 15 5 -4 9 1 9 9 0 22
42 49 52 33 5 -7 6 0 2 16 -5 23 -4 26 12 20 13 -5 15 -3 9 7 -6 10 -4 12 9 7
9 -4 15 -3 11 3 -3 5 5 18 17 29 24 23 33 27 23 11z m-926 -252 c63 -65 69
-74 54 -85 -55 -41 -153 14 -153 86 0 17 19 71 25 71 2 0 35 -33 74 -72z m741
-1 c0 -72 -78 -120 -141 -87 -18 10 -14 17 48 86 61 67 69 73 80 57 7 -9 13
-34 13 -56z"/>
<path d="M1527 179 c7 -7 15 -10 18 -7 3 3 -2 9 -12 12 -14 6 -15 5 -6 -5z"/>
<path d="M2296 268 c3 -4 11 -5 19 -1 21 7 19 12 -4 10 -11 0 -18 -5 -15 -9z"/>
<path d="M560 525 c0 -10 155 -315 160 -315 3 0 19 28 36 61 l30 62 29 -57
c16 -32 32 -59 35 -61 3 -2 40 63 80 146 41 82 80 149 87 149 10 0 13 -35 13
-150 l0 -150 123 2 122 2 -117 3 -117 4 -3 151 c-3 136 -5 151 -21 154 -14 2
-34 -31 -91 -144 l-73 -147 -30 59 -29 58 38 76 c20 43 37 80 38 85 0 4 -38 7
-85 7 -47 0 -85 -4 -85 -8 0 -5 18 -42 39 -83 l40 -75 -27 -56 c-15 -32 -29
-57 -32 -57 -3 -1 -36 64 -74 144 -38 80 -73 145 -78 145 -4 0 -8 -2 -8 -5z
m290 -20 c0 -2 -15 -34 -32 -70 l-32 -65 -33 62 c-18 35 -32 66 -33 71 0 4 29
7 65 7 36 0 65 -2 65 -5z"/>
<path d="M348 502 c-49 -32 -72 -71 -76 -131 -5 -72 22 -116 92 -150 45 -22
53 -23 95 -12 60 16 106 62 122 122 11 42 10 50 -12 95 -32 65 -76 94 -143 94
-32 0 -61 -7 -78 -18z m142 -14 c102 -52 106 -188 8 -248 -106 -64 -241 39
-208 160 15 57 77 106 140 109 9 1 36 -9 60 -21z"/>
<path d="M340 436 c0 -2 8 -10 18 -17 15 -13 16 -12 3 4 -13 16 -21 21 -21 13z"/>
<path d="M520 361 c0 -6 4 -13 10 -16 6 -3 7 1 4 9 -7 18 -14 21 -14 7z"/>
<path d="M886 183 c-6 -14 -5 -15 5 -6 7 7 10 15 7 18 -3 3 -9 -2 -12 -12z"/>
<path d="M338 173 c7 -3 16 -2 19 1 4 3 -2 6 -13 5 -11 0 -14 -3 -6 -6z"/>
<path d="M730 170 c0 -5 5 -10 11 -10 5 0 7 5 4 10 -3 6 -8 10 -11 10 -2 0 -4
-4 -4 -10z"/>
</g>
</svg>
