<?xml version="1.0" standalone="no"?>
<!DOCTYPE svg PUBLIC "-//W3C//DTD SVG 20010904//EN"
 "http://www.w3.org/TR/2001/REC-SVG-20010904/DTD/svg10.dtd">
<svg version="1.0" xmlns="http://www.w3.org/2000/svg"
 width="230.000000pt" height="197.000000pt" viewBox="0 0 230.000000 197.000000"
 preserveAspectRatio="xMidYMid meet">
<metadata>
Created by potrace 1.10, written by Peter Selinger 2001-2011
</metadata>
<g transform="translate(0.000000,197.000000) scale(0.100000,-0.100000)"
fill="#f79108" stroke="none">
<path d="M2036 1797 c3 -10 9 -15 12 -12 3 3 0 11 -7 18 -10 9 -11 8 -5 -6z"/>
<path d="M350 1736 c0 -5 23 -33 51 -63 l50 -56 -25 -26 c-103 -108 -150 -296
-111 -444 27 -105 88 -198 82 -127 -1 13 -6 19 -15 15 -11 -4 -10 2 3 22 13
20 14 24 4 16 -18 -15 -41 1 -32 23 3 8 1 14 -4 14 -5 0 -10 6 -10 13 -2 23
-11 72 -18 102 -8 27 -7 29 8 16 10 -8 17 -9 17 -3 0 6 -5 14 -11 17 -10 7
-10 115 0 144 3 11 6 10 13 -5 5 -12 6 -6 2 16 -6 30 -5 33 8 22 13 -10 15 -9
11 12 -6 32 22 85 52 96 14 5 25 12 25 15 0 4 -4 4 -9 0 -5 -3 -12 -1 -16 5
-3 5 -3 11 2 11 40 7 55 3 74 -17 13 -13 19 -24 15 -24 -4 0 -16 10 -27 23
-10 12 -18 17 -19 11 0 -6 3 -14 8 -18 4 -4 7 -13 7 -19 0 -7 9 -11 19 -9 11
2 15 -1 11 -8 -3 -6 -3 -10 2 -9 18 3 33 -2 33 -11 0 -5 -8 -7 -17 -4 -15 5
-15 4 1 -6 15 -10 16 -14 5 -21 -12 -7 -11 -9 1 -9 13 0 13 -1 0 -10 -8 -5
-10 -10 -5 -10 6 0 17 5 25 10 8 5 10 10 3 10 -13 0 -12 25 2 37 4 4 5 3 2 -3
-8 -14 16 -37 29 -26 4 4 3 0 -4 -10 -10 -12 -10 -18 -1 -24 8 -4 9 -3 5 4 -4
7 -3 12 2 12 17 0 22 -13 10 -27 -6 -7 -8 -16 -5 -20 4 -3 2 -12 -4 -19 -11
-14 6 -14 29 -1 14 9 13 15 15 -90 0 -46 4 -83 8 -83 4 0 11 -9 14 -20 4 -12
11 -17 18 -13 7 4 6 -1 -2 -11 -13 -16 -12 -17 15 -12 27 5 28 4 10 -9 -23
-17 -14 -20 15 -5 15 8 19 8 17 -2 -2 -8 5 -12 16 -10 10 2 16 -1 12 -6 -3 -5
1 -9 9 -9 8 0 15 4 15 9 0 4 5 8 11 8 5 0 8 -4 4 -9 -3 -5 8 -3 25 5 16 9 32
20 36 25 8 13 34 -8 34 -28 0 -8 5 -11 12 -7 7 5 9 2 5 -9 -4 -11 -2 -14 9
-10 10 4 12 0 8 -11 -5 -12 -2 -15 12 -9 12 4 15 3 10 -6 -5 -7 -17 -11 -27
-8 -11 3 -16 1 -13 -4 3 -5 18 -8 32 -7 21 2 27 -1 27 -17 0 -13 7 -19 18 -19
13 1 16 -4 13 -22 -3 -14 -1 -22 5 -19 5 4 7 10 4 15 -3 5 -1 11 5 15 5 3 10
0 10 -7 0 -8 9 -20 19 -28 11 -7 17 -18 14 -23 -3 -6 -1 -7 4 -4 6 4 16 0 22
-7 10 -11 7 -19 -10 -35 -24 -23 -45 -28 -33 -9 4 7 3 8 -5 4 -6 -4 -9 -12 -6
-17 4 -5 -1 -9 -10 -9 -9 0 -14 -3 -12 -7 3 -5 -13 -7 -34 -7 -35 2 -38 0 -27
-14 11 -13 10 -14 -9 -4 -18 10 -24 9 -31 -4 -18 -33 -209 -36 -247 -4 -8 6
-14 7 -17 1 -4 -12 -94 31 -132 64 -16 14 -33 25 -39 25 -5 0 -4 7 3 15 10 13
11 18 1 28 -10 9 -11 9 -6 -4 4 -10 0 -16 -9 -16 -9 0 -13 9 -11 26 2 22 1 23
-10 8 -11 -15 -13 -14 -24 10 -8 18 -15 23 -23 15 -15 -15 42 -82 113 -132 89
-62 156 -83 274 -84 119 -1 177 16 276 79 l67 43 23 -29 c13 -15 28 -28 32
-29 5 0 19 13 33 29 l25 30 58 -40 c294 -202 699 -32 762 321 23 133 -15 276
-105 394 l-38 49 53 53 c29 29 50 56 48 59 -3 3 -41 -34 -85 -82 -43 -49 -112
-123 -154 -166 -50 -53 -75 -87 -75 -103 -1 -28 1 -29 21 -9 11 11 12 15 3 15
-22 0 -1 13 23 14 13 1 26 -6 31 -14 9 -17 4 12 -8 45 -6 18 -5 18 7 3 13 -15
16 -15 38 3 14 10 20 19 13 19 -6 0 -15 -4 -18 -10 -3 -5 -11 -10 -18 -10 -8
0 -8 3 0 11 6 6 9 18 6 25 -6 17 13 19 21 2 3 -7 3 -3 0 10 -6 23 10 31 20 10
3 -7 4 -4 1 8 -4 14 5 29 27 50 l33 29 -29 -32 c-17 -18 -25 -33 -20 -33 12 0
60 62 56 73 -5 15 8 6 19 -14 9 -17 8 -20 -3 -13 -7 4 -4 -3 7 -16 20 -23 20
-23 0 -16 -16 6 -17 5 -8 -5 10 -10 16 -9 29 2 12 9 15 10 10 2 -4 -8 -2 -13
4 -13 6 0 8 -4 5 -10 -3 -5 -1 -10 4 -10 6 0 11 -5 11 -10 0 -6 7 -27 16 -48
20 -44 26 -66 28 -107 0 -16 5 -33 9 -36 4 -3 3 -18 -2 -32 -7 -17 -7 -27 -1
-27 10 0 5 -43 -12 -98 -8 -27 -12 -31 -25 -21 -12 11 -13 8 -8 -17 5 -20 4
-25 -3 -15 -7 9 -9 -1 -7 -33 3 -42 2 -46 -12 -34 -14 11 -15 10 -8 -11 5 -16
4 -21 -4 -17 -6 4 -11 1 -11 -7 0 -19 -47 -50 -55 -37 -3 6 -12 10 -18 10 -8
0 -8 -3 -2 -8 13 -9 18 -42 7 -42 -5 0 -25 -16 -45 -35 -21 -20 -42 -32 -50
-29 -8 3 -18 1 -22 -5 -8 -14 -25 -14 -25 -1 0 6 6 10 14 10 23 0 27 16 8 31
-15 13 -16 12 -3 -3 11 -15 11 -18 -1 -18 -8 0 -23 -7 -34 -16 -10 -8 -13 -13
-6 -9 6 3 12 1 12 -4 0 -9 -23 -16 -32 -9 -2 1 -13 -4 -26 -11 -12 -6 -54 -13
-92 -15 -62 -3 -68 -2 -53 11 16 13 16 13 -5 3 -17 -8 -27 -8 -36 -1 -7 6 -16
8 -19 5 -3 -4 -22 3 -42 15 -20 11 -34 17 -31 12 4 -5 -7 -4 -23 2 -16 6 -27
16 -24 23 2 6 -1 15 -8 20 -7 4 -10 3 -6 -2 3 -5 -3 -10 -13 -10 -10 0 -16 4
-14 8 7 10 -32 29 -42 20 -5 -4 2 5 15 20 13 15 28 25 34 21 6 -3 7 -1 3 5
-12 20 19 19 44 -2 14 -11 19 -14 13 -6 -19 21 -16 34 5 19 15 -13 16 -12 4 3
-13 17 -8 43 7 34 4 -3 7 4 7 14 -1 11 4 18 9 17 6 -1 9 -6 7 -10 -1 -5 2 -6
8 -2 8 5 7 11 -1 21 -9 12 -15 12 -28 2 -10 -8 -9 -5 3 10 19 22 32 30 22 13
-11 -17 19 -19 38 -2 18 15 19 15 13 -2 -4 -10 -3 -16 2 -12 5 3 8 23 6 45 -2
22 1 40 6 40 6 0 7 5 4 10 -10 16 1 11 16 -7 12 -14 12 -15 1 -9 -11 7 -12 4
-2 -13 9 -18 30 -21 30 -5 0 3 -5 2 -10 -1 -5 -3 -10 -2 -10 3 0 17 13 22 28
9 13 -10 14 -9 7 3 -5 9 0 8 13 -4 13 -11 22 -14 22 -7 0 8 5 9 19 1 25 -13
41 -13 21 0 -12 8 -8 10 15 11 17 1 36 2 42 2 7 -1 11 3 8 7 -3 4 5 20 16 34
12 15 19 30 15 33 -3 4 -6 0 -6 -7 0 -7 -2 -11 -5 -8 -3 3 1 17 8 32 8 14 13
40 11 57 -3 22 0 28 9 23 6 -4 0 4 -15 18 -21 20 -26 33 -22 54 l5 28 -22 -19
c-12 -11 -110 -114 -218 -230 -108 -115 -214 -229 -237 -253 l-41 -43 -179
193 c-305 329 -356 379 -371 367 -7 -6 -10 -16 -6 -23 3 -6 0 -6 -7 1 -12 11
-11 15 6 28 17 13 17 17 4 28 -12 10 -178 187 -258 276 -12 14 -22 21 -22 17z
m1420 -316 c0 -5 -4 -10 -10 -10 -5 0 -10 5 -10 10 0 6 5 10 10 10 6 0 10 -4
10 -10z m-1110 -35 c0 6 5 3 10 -6 7 -12 5 -26 -5 -45 l-15 -29 2 30 c1 17 -2
39 -6 50 -6 16 -6 17 3 5 6 -8 11 -10 11 -5z m203 -203 c22 -10 3 -25 -54 -42
-37 -11 -103 20 -123 59 -20 38 -21 100 -1 128 14 21 17 19 92 -60 43 -45 81
-83 86 -85z m837 86 c0 -82 -57 -134 -137 -125 -74 8 -75 19 -4 91 63 64 73
68 101 51 9 -5 8 0 -4 13 -16 18 -17 24 -6 38 12 14 15 13 32 -8 9 -13 18 -40
18 -60z m-17 -113 c-3 -9 -8 -14 -10 -11 -3 3 -2 9 2 15 9 16 15 13 8 -4z
m-229 -80 c-12 -19 -19 -23 -25 -14 -9 15 -2 32 11 24 4 -3 11 2 14 11 4 9 9
14 12 11 3 -3 -2 -17 -12 -32z m-74 -62 c-1 -15 -30 -46 -37 -40 -3 4 2 16 12
27 19 21 25 24 25 13z m550 -67 c0 -2 -6 -9 -14 -15 -11 -9 -16 -9 -22 0 -4 7
-3 9 4 5 6 -3 13 -2 17 4 6 10 15 14 15 6z"/>
<path d="M770 1180 c-9 -6 -10 -10 -3 -10 6 0 15 5 18 10 8 12 4 12 -15 0z"/>
<path d="M1604 1228 l-19 -23 23 19 c12 11 22 21 22 23 0 8 -8 2 -26 -19z"/>
<path d="M1615 1209 c-4 -6 -5 -12 -2 -15 2 -3 7 2 10 11 7 17 1 20 -8 4z"/>
<path d="M2060 1731 c0 -6 4 -13 10 -16 6 -3 7 1 4 9 -7 18 -14 21 -14 7z"/>
<path d="M498 1638 c-7 -17 15 -19 29 -3 4 4 3 5 -4 2 -6 -4 -13 -2 -15 5 -3
8 -6 6 -10 -4z"/>
<path d="M1976 1612 c-3 -5 1 -9 9 -9 8 0 12 4 9 9 -3 4 -7 8 -9 8 -2 0 -6 -4
-9 -8z"/>
<path d="M2005 1561 c-9 -15 15 -25 28 -12 9 9 7 10 -7 5 -13 -5 -17 -4 -12 4
4 7 5 12 2 12 -3 0 -7 -4 -11 -9z"/>
<path d="M449 1523 c-13 -16 -12 -17 4 -4 9 7 17 15 17 17 0 8 -8 3 -21 -13z"/>
<path d="M1773 1525 c0 -8 4 -12 9 -9 5 3 6 10 3 15 -9 13 -12 11 -12 -6z"/>
<path d="M404 1513 c-3 -10 -10 -28 -15 -40 -13 -34 -4 -28 20 13 24 40 25 44
11 44 -6 0 -13 -8 -16 -17z"/>
<path d="M1893 1505 c0 -8 4 -12 9 -9 5 3 6 10 3 15 -9 13 -12 11 -12 -6z"/>
<path d="M1953 1489 c9 -5 17 -16 17 -24 0 -8 4 -17 10 -20 6 -4 7 1 3 12 -9
26 -24 43 -37 43 -6 0 -3 -5 7 -11z"/>
<path d="M1689 1473 c-13 -16 -12 -17 4 -4 9 7 17 15 17 17 0 8 -8 3 -21 -13z"/>
<path d="M1854 1464 c-4 -16 -12 -33 -18 -37 -7 -6 -6 -7 3 -5 14 4 35 57 26
66 -2 2 -7 -9 -11 -24z"/>
<path d="M654 1469 c-3 -6 -2 -15 3 -20 5 -5 9 -1 9 11 0 23 -2 24 -12 9z"/>
<path d="M693 1468 c-11 -19 -13 -39 -1 -32 5 3 7 9 4 12 -3 3 -1 11 5 19 6 7
9 13 6 13 -3 0 -9 -6 -14 -12z"/>
<path d="M1870 1449 c0 -5 5 -7 10 -4 6 3 10 8 10 11 0 2 -4 4 -10 4 -5 0 -10
-5 -10 -11z"/>
<path d="M776 1402 c-3 -5 1 -9 9 -9 8 0 12 4 9 9 -3 4 -7 8 -9 8 -2 0 -6 -4
-9 -8z"/>
<path d="M1613 1395 c0 -8 4 -12 9 -9 5 3 6 10 3 15 -9 13 -12 11 -12 -6z"/>
<path d="M783 1365 c0 -8 4 -12 9 -9 5 3 6 10 3 15 -9 13 -12 11 -12 -6z"/>
<path d="M1706 1335 c4 -8 11 -15 16 -15 6 0 5 6 -2 15 -7 8 -14 15 -16 15 -2
0 -1 -7 2 -15z"/>
<path d="M592 1316 c-1 -16 1 -18 8 -6 7 12 11 10 19 -10 6 -17 10 -19 10 -8
1 9 -4 20 -9 23 -6 4 -8 10 -6 14 3 4 -1 8 -7 8 -7 0 -14 -10 -15 -21z"/>
<path d="M1465 1319 c-3 -4 2 -6 10 -5 21 3 28 13 10 13 -9 0 -18 -4 -20 -8z"/>
<path d="M341 1294 c0 -11 3 -14 6 -6 3 7 2 16 -1 19 -3 4 -6 -2 -5 -13z"/>
<path d="M618 1264 c-2 -5 -4 -16 -3 -24 1 -8 3 -24 4 -35 2 -19 3 -19 11 3 9
21 -2 75 -12 56z"/>
<path d="M1730 1226 c0 -2 8 -10 18 -17 15 -13 16 -12 3 4 -13 16 -21 21 -21
13z"/>
<path d="M1443 1193 c4 -3 1 -13 -6 -22 -11 -14 -10 -14 5 -2 16 12 16 31 1
31 -4 0 -3 -3 0 -7z"/>
<path d="M350 1153 c0 -6 8 -17 18 -24 16 -13 16 -13 2 6 -8 11 -16 22 -17 24
-2 2 -3 0 -3 -6z"/>
<path d="M865 1130 c-3 -5 -1 -10 6 -10 8 0 7 -5 -2 -17 -13 -16 -12 -17 3 -5
9 8 14 20 11 28 -6 17 -10 17 -18 4z"/>
<path d="M435 1030 c3 -5 8 -10 11 -10 2 0 4 5 4 10 0 6 -5 10 -11 10 -5 0 -7
-4 -4 -10z"/>
<path d="M1475 1031 c-3 -5 -2 -12 3 -15 5 -3 9 1 9 9 0 17 -3 19 -12 6z"/>
<path d="M1903 975 c0 -8 4 -12 9 -9 5 3 6 10 3 15 -9 13 -12 11 -12 -6z"/>
<path d="M1400 966 c0 -2 8 -10 18 -17 15 -13 16 -12 3 4 -13 16 -21 21 -21
13z"/>
<path d="M1987 925 c-4 -8 -3 -16 1 -19 4 -3 9 4 9 15 2 23 -3 25 -10 4z"/>
<path d="M1023 903 c0 -9 4 -10 14 -2 7 6 13 12 13 14 0 1 -6 2 -13 2 -8 0
-14 -6 -14 -14z"/>
<path d="M1281 917 c2 -2 11 -8 20 -15 12 -9 16 -9 16 1 0 7 -9 14 -20 14 -11
1 -18 1 -16 0z"/>
<path d="M1365 910 c-4 -6 -11 -7 -17 -4 -7 4 -8 2 -4 -5 6 -9 12 -9 24 1 10
7 19 14 21 15 2 2 -1 3 -7 3 -6 0 -14 -5 -17 -10z"/>
<path d="M434 885 c1 -8 8 -21 16 -28 12 -10 12 -9 2 4 -6 9 -9 18 -6 21 3 3
1 9 -4 12 -6 3 -9 -1 -8 -9z"/>
<path d="M963 875 c0 -8 4 -12 9 -9 5 3 6 10 3 15 -9 13 -12 11 -12 -6z"/>
<path d="M1799 887 c0 -1 -2 -10 -4 -19 -3 -15 0 -16 16 -8 10 6 19 12 19 14
0 4 -30 17 -31 13z"/>
<path d="M550 870 c8 -5 22 -9 30 -9 10 0 8 3 -5 9 -27 12 -43 12 -25 0z"/>
<path d="M668 873 c7 -3 16 -2 19 1 4 3 -2 6 -13 5 -11 0 -14 -3 -6 -6z"/>
<path d="M1367 869 c7 -7 15 -10 18 -7 3 3 -2 9 -12 12 -14 6 -15 5 -6 -5z"/>
<path d="M608 863 c7 -3 16 -2 19 1 4 3 -2 6 -13 5 -11 0 -14 -3 -6 -6z"/>
<path d="M1919 853 c-13 -16 -12 -17 4 -4 16 13 21 21 13 21 -2 0 -10 -8 -17
-17z"/>
<path d="M590 846 c0 -2 11 -6 25 -8 13 -3 22 -1 19 3 -5 9 -44 13 -44 5z"/>
<path d="M1096 838 c3 -4 11 -5 19 -1 21 7 19 12 -4 10 -11 0 -18 -5 -15 -9z"/>
<path d="M494 798 c-4 -7 -4 -10 1 -6 4 4 14 3 21 -3 9 -7 14 -6 20 3 4 7 4
10 -1 6 -4 -4 -14 -3 -21 3 -9 7 -14 6 -20 -3z"/>
<path d="M1365 600 c-3 -5 -2 -18 4 -27 7 -14 9 -12 8 10 -2 30 -3 31 -12 17z"/>
<path d="M1475 600 c-3 -5 -3 -10 2 -10 4 0 1 -5 -7 -10 -13 -8 -13 -10 2 -10
11 0 16 7 15 20 -1 23 -3 24 -12 10z"/>
<path d="M773 585 c0 -8 4 -12 9 -9 5 3 6 10 3 15 -9 13 -12 11 -12 -6z"/>
<path d="M936 587 c3 -10 9 -15 12 -12 3 3 0 11 -7 18 -10 9 -11 8 -5 -6z"/>
<path d="M1000 594 c0 -6 7 -19 16 -30 14 -18 14 -18 3 6 -14 31 -19 36 -19
24z"/>
<path d="M1585 590 c-3 -5 -1 -10 4 -10 6 0 11 5 11 10 0 6 -2 10 -4 10 -3 0
-8 -4 -11 -10z"/>
<path d="M664 578 c10 -6 22 -6 26 -2 5 5 -3 10 -18 11 -22 1 -24 0 -8 -9z"/>
<path d="M1136 578 c3 -4 11 -5 19 -1 21 7 19 12 -4 10 -11 0 -18 -5 -15 -9z"/>
<path d="M700 560 c-9 -6 -10 -10 -3 -10 6 0 15 5 18 10 8 12 4 12 -15 0z"/>
<path d="M978 565 c-7 -7 177 -385 187 -385 3 0 22 35 44 77 l38 77 38 -77
c21 -42 40 -77 44 -77 3 0 47 82 97 182 50 100 96 184 102 186 8 2 12 -53 14
-185 l3 -188 148 -2 c88 -1 147 2 147 7 0 6 -58 10 -140 10 l-140 0 0 185 0
185 -28 0 c-25 0 -33 -12 -116 -177 l-88 -178 -37 73 -37 74 48 91 c26 51 48
98 48 105 0 9 -27 12 -105 12 -58 0 -105 -4 -105 -9 0 -4 22 -51 49 -104 l49
-95 -33 -67 c-18 -36 -36 -66 -40 -66 -4 0 -46 79 -94 176 -47 97 -89 173 -93
170z m352 -22 c0 -2 -19 -41 -42 -88 l-43 -85 -42 82 c-23 46 -42 85 -42 88
-1 3 37 5 84 5 47 0 85 -1 85 -2z"/>
<path d="M1269 508 c7 -9 9 -23 5 -30 -6 -10 -4 -11 7 0 11 10 10 15 -6 30
-17 15 -18 15 -6 0z"/>
<path d="M1246 497 c3 -10 9 -15 12 -12 3 3 0 11 -7 18 -10 9 -11 8 -5 -6z"/>
<path d="M747 550 c-83 -26 -143 -116 -135 -201 10 -103 93 -174 200 -174 47
1 65 6 99 30 84 59 111 160 66 246 -43 81 -147 126 -230 99z m150 -35 c112
-66 111 -235 -3 -301 -116 -68 -264 16 -264 150 0 138 146 221 267 151z"/>
<path d="M717 484 c-3 -3 -3 -12 0 -20 4 -10 0 -12 -13 -7 -12 4 -15 3 -10 -5
4 -7 2 -12 -4 -12 -6 0 -8 -5 -4 -11 4 -8 9 -7 15 2 8 12 10 12 18 0 6 -9 8
-2 8 23 -1 20 -2 36 -2 36 -1 0 -4 -3 -8 -6z"/>
<path d="M909 478 c-6 -21 -5 -38 1 -38 5 0 8 9 7 20 -1 17 -5 26 -8 18z"/>
<path d="M915 399 c-4 -6 -5 -12 -2 -15 2 -3 7 2 10 11 7 17 1 20 -8 4z"/>
<path d="M924 369 c-3 -6 -2 -15 3 -20 5 -5 9 -1 9 11 0 23 -2 24 -12 9z"/>
<path d="M905 330 c-3 -5 -2 -18 4 -27 7 -14 9 -12 8 10 -2 30 -3 31 -12 17z"/>
<path d="M700 311 c0 -6 4 -13 10 -16 6 -3 7 1 4 9 -7 18 -14 21 -14 7z"/>
<path d="M725 269 c6 -9 3 -10 -11 -5 -10 4 -15 4 -11 -1 5 -4 22 -8 38 -9 34
-2 34 -2 0 16 -19 10 -22 10 -16 -1z"/>
<path d="M904 270 c2 -16 20 -14 24 2 3 10 2 10 -6 -1 -7 -9 -11 -10 -15 -2
-4 7 -5 8 -3 1z"/>
<path d="M1602 520 c0 -14 2 -19 5 -12 2 6 2 18 0 25 -3 6 -5 1 -5 -13z"/>
<path d="M233 523 c9 -2 23 -2 30 0 6 3 -1 5 -18 5 -16 0 -22 -2 -12 -5z"/>
<path d="M596 518 c3 -5 10 -6 15 -3 13 9 11 12 -6 12 -8 0 -12 -4 -9 -9z"/>
<path d="M1060 500 c-9 -6 -10 -10 -3 -10 6 0 15 5 18 10 8 12 4 12 -15 0z"/>
<path d="M1434 499 c-3 -6 -1 -16 5 -22 9 -9 10 -7 5 7 -6 15 -4 17 6 11 9 -5
11 -4 6 3 -9 15 -13 15 -22 1z"/>
<path d="M600 490 c-8 -5 -12 -12 -9 -15 4 -3 12 1 19 10 14 17 11 19 -10 5z"/>
<path d="M1160 401 c0 -5 5 -13 10 -16 6 -3 10 -2 10 4 0 5 -4 13 -10 16 -5 3
-10 2 -10 -4z"/>
<path d="M1322 369 c-8 -12 -9 -18 -4 -15 13 8 36 -20 27 -34 -3 -5 -4 -10 -1
-10 3 0 11 10 17 23 6 12 8 19 4 15 -12 -11 -35 11 -28 28 8 21 0 17 -15 -7z"/>
<path d="M1155 321 c5 -16 4 -21 -4 -17 -7 4 -9 1 -5 -8 5 -14 8 -14 21 -1 13
13 12 17 -3 32 -16 16 -16 16 -9 -6z"/>
<path d="M1315 330 c3 -5 8 -10 11 -10 2 0 4 5 4 10 0 6 -5 10 -11 10 -5 0 -7
-4 -4 -10z"/>
<path d="M1325 290 c2 -27 10 -33 12 -10 1 11 -2 22 -6 24 -4 3 -7 -4 -6 -14z"/>
<path d="M1065 280 c5 -8 8 -23 7 -32 -4 -24 4 -23 11 2 3 11 -2 25 -11 32
-13 11 -14 11 -7 -2z"/>
<path d="M1243 257 c-8 -17 -8 -24 0 -24 7 0 13 11 13 24 2 29 0 29 -13 0z"/>
<path d="M577 253 c-6 -11 -1 -38 11 -60 10 -16 11 -15 8 7 -1 14 -5 31 -9 37
-4 6 -1 14 5 16 9 4 10 6 1 6 -6 1 -14 -2 -16 -6z"/>
<path d="M612 220 c0 -16 3 -32 7 -34 7 -5 6 52 -2 60 -2 2 -4 -9 -5 -26z"/>
<path d="M957 215 c-17 -23 -17 -25 1 -34 11 -6 23 -6 33 0 12 8 12 11 -2 22
-9 6 -14 18 -12 25 7 18 0 14 -20 -13z m26 -28 c-5 -8 -8 -7 -11 1 -2 7 -9 9
-14 6 -7 -4 -8 -2 -4 4 4 6 13 9 21 6 8 -4 12 -11 8 -17z"/>
<path d="M1081 204 c0 -11 3 -14 6 -6 3 7 2 16 -1 19 -3 4 -6 -2 -5 -13z"/>
<path d="M1200 170 c-6 -11 -8 -20 -6 -20 3 0 10 9 16 20 6 11 8 20 6 20 -3 0
-10 -9 -16 -20z"/>
<path d="M1346 174 c-3 -9 -2 -22 4 -29 5 -6 8 -15 5 -19 -3 -3 2 0 11 8 15
13 15 16 1 36 -13 18 -15 19 -21 4z m24 -25 c0 -6 -4 -7 -10 -4 -5 3 -10 11
-10 16 0 6 5 7 10 4 6 -3 10 -11 10 -16z"/>
<path d="M720 154 c24 -14 24 -15 3 -11 -13 3 -26 1 -29 -4 -7 -11 36 -12 54
-1 9 6 5 12 -13 20 -36 17 -45 14 -15 -4z"/>
<path d="M916 153 c-6 -14 -5 -15 5 -6 7 7 10 15 7 18 -3 3 -9 -2 -12 -12z"/>
<path d="M1150 161 c0 -7 -4 -9 -10 -6 -6 4 -7 -1 -3 -11 6 -15 7 -15 15 1 6
9 7 19 4 22 -3 4 -6 1 -6 -6z"/>
<path d="M1310 165 c0 -5 5 -17 10 -25 5 -8 10 -10 10 -5 0 6 -5 17 -10 25 -5
8 -10 11 -10 5z"/>
<path d="M1536 143 c-6 -14 -5 -15 5 -6 7 7 10 15 7 18 -3 3 -9 -2 -12 -12z"/>
<path d="M1000 146 c0 -2 7 -7 16 -10 8 -3 12 -2 9 4 -6 10 -25 14 -25 6z"/>
<path d="M1790 145 c0 -5 5 -17 10 -25 5 -8 10 -10 10 -5 0 6 -5 17 -10 25 -5
8 -10 11 -10 5z"/>
<path d="M1200 130 c-8 -5 -10 -10 -5 -10 6 0 17 5 25 10 8 5 11 10 5 10 -5 0
-17 -5 -25 -10z"/>
<path d="M1385 100 c10 -11 20 -20 23 -20 3 0 -3 9 -13 20 -10 11 -20 20 -23
20 -3 0 3 -9 13 -20z"/>
</g>
</svg>
