<?xml version="1.0" standalone="no"?>
<!DOCTYPE svg PUBLIC "-//W3C//DTD SVG 20010904//EN"
 "http://www.w3.org/TR/2001/REC-SVG-20010904/DTD/svg10.dtd">
<svg version="1.0" xmlns="http://www.w3.org/2000/svg"
 width="900.000000pt" height="276.000000pt" viewBox="0 0 900.000000 276.000000"
 preserveAspectRatio="xMidYMid meet">
<metadata>
Created by potrace 1.10, written by Peter Selinger 2001-2011
</metadata>
<g transform="translate(0.000000,276.000000) scale(0.100000,-0.100000)"
fill="#f66709" stroke="none">
<path d="M4317 2354 c-3 -3 -3 -12 0 -20 3 -8 -13 -34 -38 -62 -114 -123 -241
-328 -270 -437 -5 -16 -16 -55 -25 -85 -33 -111 -46 -237 -40 -405 7 -219 37
-337 137 -532 68 -134 122 -206 244 -328 130 -130 310 -238 495 -298 25 -8 61
-20 81 -26 52 -16 538 -14 609 3 171 41 382 148 509 258 23 21 41 28 57 25 13
-2 24 -2 24 1 0 5 -53 64 -169 187 -42 45 -101 108 -131 141 -30 33 -114 123
-187 200 -73 77 -142 152 -153 167 -25 31 -46 35 -52 9 -3 -9 -31 -31 -64 -47
-51 -26 -70 -30 -139 -29 -67 0 -89 5 -135 28 -65 32 -85 48 -126 101 -42 53
-64 122 -64 198 0 79 24 146 72 199 21 23 38 43 38 45 0 1 -8 10 -18 20 -10
10 -52 54 -93 98 -194 209 -466 501 -525 562 -17 18 -33 30 -37 27z"/>
<path d="M8068 2299 c-24 -24 -86 -91 -138 -148 -52 -57 -102 -111 -111 -120
-8 -9 -74 -79 -145 -155 -71 -77 -140 -152 -154 -167 -34 -36 -80 -90 -80 -94
0 -2 9 -1 20 2 29 8 53 -18 84 -87 42 -92 33 -216 -20 -301 -55 -88 -179 -159
-279 -159 -79 0 -205 56 -205 91 0 25 -11 24 -35 -3 -10 -13 -55 -61 -99 -108
-107 -113 -308 -329 -434 -465 -56 -60 -102 -116 -102 -122 0 -7 8 -13 18 -13
10 0 29 -12 43 -26 58 -62 279 -188 403 -229 124 -42 152 -45 418 -45 144 0
275 4 292 10 210 66 294 104 419 189 68 46 227 194 272 252 140 179 220 358
261 584 20 112 15 382 -10 492 -46 205 -151 412 -289 568 -39 44 -74 84 -79
89 -4 5 -26 -10 -50 -35z"/>
<path d="M795 1745 c-22 -8 -47 -15 -55 -15 -36 0 -149 -69 -207 -125 -66 -65
-105 -133 -134 -235 -34 -116 -21 -214 44 -350 75 -153 259 -267 437 -269 55
-1 179 24 193 38 6 6 17 11 23 11 18 0 103 58 139 94 34 34 105 132 105 144 0
4 7 19 14 34 8 15 20 61 27 103 31 182 -49 369 -207 486 -29 21 -56 39 -60 39
-3 0 -20 6 -37 14 -93 40 -221 54 -282 31z m192 -45 c175 -30 328 -193 354
-379 15 -105 3 -179 -50 -291 -21 -44 -137 -160 -181 -181 -153 -72 -296 -76
-424 -13 -61 29 -172 124 -187 158 -5 12 -13 28 -18 36 -46 76 -68 203 -51
296 37 197 177 341 368 378 67 13 91 12 189 -4z"/>
<path d="M1330 1743 c0 -9 106 -229 236 -490 179 -358 240 -473 252 -471 18 3
85 124 167 301 17 37 32 57 44 57 11 0 27 -21 45 -57 107 -222 145 -288 167
-288 19 0 53 61 253 458 127 253 239 463 248 468 12 7 25 6 38 -1 20 -10 20
-20 20 -473 0 -347 3 -466 12 -475 15 -15 715 -17 738 -2 39 25 -16 30 -355
32 l-350 3 -5 475 -5 475 -64 0 c-75 0 -62 16 -166 -195 -36 -74 -71 -144 -78
-155 -6 -11 -53 -105 -105 -210 -51 -104 -97 -197 -102 -205 -5 -8 -20 -38
-34 -66 -25 -51 -50 -72 -61 -53 -35 55 -165 329 -165 346 0 12 27 75 59 140
33 65 81 163 107 218 26 55 54 108 62 117 7 9 12 27 10 40 l-3 23 -267 3 -268
2 0 -26 c0 -14 6 -38 14 -52 8 -15 38 -74 66 -130 51 -103 66 -133 81 -162 34
-63 79 -163 79 -175 0 -7 -11 -35 -24 -62 -127 -260 -140 -283 -157 -283 -13
0 -37 39 -89 142 -39 79 -75 150 -80 158 -5 8 -72 144 -150 303 -87 176 -147
287 -156 287 -8 0 -14 -7 -14 -17z m910 -47 c0 -13 -7 -29 -15 -36 -8 -7 -15
-18 -15 -24 0 -6 -37 -85 -83 -176 -56 -112 -87 -165 -98 -165 -19 0 -209 365
-209 402 l0 23 210 0 210 0 0 -24z"/>
<path d="M6295 399 c-4 -6 -5 -13 -2 -16 7 -7 27 6 27 18 0 12 -17 12 -25 -2z"/>
</g>
</svg>
