<?xml version="1.0" standalone="no"?>
<!DOCTYPE svg PUBLIC "-//W3C//DTD SVG 20010904//EN"
 "http://www.w3.org/TR/2001/REC-SVG-20010904/DTD/svg10.dtd">
<svg version="1.0" xmlns="http://www.w3.org/2000/svg"
 width="690.000000pt" height="591.000000pt" viewBox="0 0 690.000000 591.000000"
 preserveAspectRatio="xMidYMid meet">
<metadata>
Created by potrace 1.10, written by Peter Selinger 2001-2011
</metadata>
<g transform="translate(0.000000,591.000000) scale(0.100000,-0.100000)"
fill="#000000" stroke="none">
<path d="M5968 5147 c-37 -40 -78 -85 -93 -102 -15 -16 -51 -55 -81 -86 -30
-31 -54 -60 -54 -63 0 -4 -12 -20 -27 -35 -16 -16 -73 -79 -128 -141 -55 -62
-116 -130 -135 -150 -282 -295 -356 -373 -360 -383 -3 -7 -48 -53 -100 -102
-52 -50 -122 -119 -155 -154 -33 -35 -85 -90 -115 -121 -30 -32 -79 -84 -108
-116 -30 -33 -68 -75 -86 -94 -17 -19 -54 -62 -81 -95 -28 -32 -63 -73 -80
-90 -16 -17 -92 -98 -168 -180 -75 -83 -143 -155 -150 -161 -6 -6 -48 -50 -92
-99 -44 -48 -97 -104 -117 -123 -21 -19 -38 -41 -38 -47 0 -7 -12 -21 -27 -30
-34 -22 -213 -204 -213 -216 0 -5 -7 -9 -15 -9 -8 0 -15 3 -15 8 0 4 -41 48
-91 97 -107 105 -197 199 -300 310 -40 44 -92 98 -114 121 -80 82 -270 287
-273 294 -2 5 -24 30 -50 57 -26 26 -65 70 -87 97 -22 28 -76 88 -121 135 -45
47 -101 108 -125 136 -24 27 -116 122 -204 211 -88 89 -207 213 -265 275 -58
62 -127 136 -155 165 -176 183 -375 401 -375 411 0 5 -48 58 -106 118 -112
117 -187 201 -192 216 -2 5 -12 9 -23 9 -14 0 -19 -7 -19 -25 0 -23 50 -78
282 -312 l32 -32 -54 -58 c-30 -32 -57 -60 -60 -63 -13 -13 -70 -90 -70 -95 0
-3 -5 -11 -10 -18 -20 -22 -75 -112 -94 -152 -10 -22 -23 -47 -28 -55 -4 -8
-11 -22 -14 -30 -3 -8 -12 -27 -20 -42 -8 -14 -14 -37 -14 -50 0 -12 -7 -32
-15 -42 -8 -11 -15 -33 -15 -49 0 -15 -5 -38 -12 -50 -7 -12 -15 -49 -20 -82
-4 -33 -12 -80 -17 -105 -13 -57 -13 -289 0 -355 5 -27 13 -78 18 -112 5 -34
12 -67 17 -74 4 -7 11 -29 15 -48 10 -52 27 -94 76 -197 23 -49 43 -93 43 -96
0 -15 127 -197 169 -243 25 -28 58 -64 72 -80 84 -95 323 -265 429 -305 19 -7
49 -19 65 -26 54 -24 119 -45 163 -55 24 -5 49 -12 55 -16 13 -8 75 -17 251
-34 119 -12 138 -11 356 21 30 4 68 13 83 19 16 6 40 11 55 11 15 0 36 7 46
15 11 8 32 15 47 15 14 0 32 7 39 15 7 8 20 15 29 15 18 0 84 33 185 94 37 22
76 46 86 51 21 13 72 51 115 88 18 15 37 27 43 27 6 0 24 -16 39 -37 55 -71
130 -143 151 -143 12 0 29 12 39 27 10 15 36 46 59 68 23 22 49 52 59 67 l17
28 42 -32 c22 -18 43 -35 46 -38 19 -20 218 -143 275 -170 39 -18 82 -39 97
-46 14 -8 33 -14 41 -14 8 0 28 -7 43 -15 16 -8 39 -15 52 -15 13 0 32 -5 43
-11 11 -6 53 -14 92 -19 239 -30 270 -32 381 -20 193 21 220 26 243 38 12 7
33 12 47 12 24 0 68 15 129 46 16 8 37 14 47 14 9 0 23 7 30 15 7 8 23 15 35
15 12 0 28 7 35 15 7 8 17 15 22 15 12 0 173 106 204 135 44 41 79 70 106 91
66 50 216 237 265 332 34 65 52 100 66 132 49 113 66 159 76 211 4 19 11 41
16 48 17 28 29 174 29 336 0 187 -9 286 -29 355 -7 25 -21 72 -30 105 -20 71
-22 75 -34 95 -5 8 -17 35 -27 60 -10 25 -24 52 -31 61 -7 8 -13 23 -13 31 0
9 -7 21 -15 28 -8 7 -15 16 -15 21 0 22 -119 182 -192 258 -27 28 -48 55 -48
61 0 6 37 49 83 94 143 145 227 238 227 251 0 7 -6 17 -13 23 -9 8 -29 -7 -79
-61z m-218 -461 c0 -18 37 -59 68 -75 28 -15 28 -29 1 -39 -21 -8 -21 -9 5
-25 14 -9 30 -17 36 -17 6 0 15 -11 20 -24 5 -13 17 -27 27 -30 22 -7 78 -123
88 -181 10 -62 15 -75 31 -75 21 0 17 -38 -6 -57 -20 -17 -19 -18 13 -51 26
-27 32 -42 34 -80 14 -350 15 -440 4 -446 -6 -4 -11 -28 -11 -54 -1 -26 -8
-65 -16 -87 -18 -45 -19 -60 -9 -92 9 -29 -4 -29 -34 -2 -28 27 -38 18 -16
-14 18 -28 12 -95 -10 -103 -7 -3 -15 -18 -18 -34 -4 -16 -16 -38 -29 -50 -16
-14 -22 -30 -20 -50 3 -25 0 -30 -17 -30 -25 0 -45 -32 -29 -48 14 -14 2 -32
-21 -32 -10 0 -21 -8 -25 -17 -7 -22 -54 -105 -65 -116 -9 -9 -33 -15 -65 -16
-14 -1 -17 -7 -13 -26 4 -22 1 -25 -17 -23 -21 3 -24 -6 -15 -42 3 -9 -4 -16
-17 -18 -12 -2 -30 -12 -40 -23 -9 -10 -23 -19 -30 -19 -7 0 -18 -9 -25 -21
-8 -15 -14 -18 -21 -11 -12 12 -65 -18 -81 -45 -4 -7 -15 -13 -22 -13 -8 0
-15 -6 -15 -12 0 -15 -45 -38 -72 -38 -10 0 -18 -4 -18 -10 0 -16 -43 -50 -63
-50 -10 0 -21 9 -24 20 -6 21 -36 35 -53 25 -15 -9 -12 -25 4 -25 23 0 30 -20
13 -37 -18 -18 -39 -9 -30 12 3 9 -1 15 -11 15 -9 0 -16 -8 -16 -20 0 -20 -12
-25 -61 -21 -17 1 -29 -4 -33 -15 -5 -13 -16 -15 -67 -9 -47 6 -63 4 -70 -6
-4 -7 -25 -14 -46 -15 -21 -1 -67 -4 -103 -7 -37 -3 -70 -1 -77 5 -7 5 -27 7
-45 3 -24 -4 -29 -3 -18 4 8 5 11 13 7 17 -3 4 -13 2 -21 -5 -11 -9 -30 -8
-82 5 -38 9 -89 17 -114 18 -59 4 -154 37 -185 66 -16 15 -31 21 -45 17 -16
-4 -20 -2 -16 9 3 8 9 21 12 29 5 11 -1 15 -20 15 -15 0 -29 -7 -32 -15 -4 -8
-16 -15 -28 -15 -17 0 -22 6 -21 28 0 27 -13 32 -55 21 -10 -3 -15 3 -14 19 1
22 -20 30 -31 12 -9 -15 -25 -12 -25 5 0 8 5 15 10 15 13 0 13 27 -1 35 -6 4
-17 -1 -24 -11 -10 -13 -17 -15 -22 -8 -5 6 -17 16 -28 22 -20 11 -20 12 3 18
12 4 22 14 22 25 0 10 16 31 35 46 19 15 35 34 35 41 0 6 10 22 22 34 18 18
25 20 50 10 22 -8 28 -7 28 3 0 7 -7 15 -15 19 -19 7 -19 40 0 56 12 10 17 7
27 -14 l12 -27 22 28 c32 38 31 57 -1 49 -29 -8 -34 10 -7 30 23 18 32 17 32
-1 0 -8 8 -15 18 -15 15 0 17 6 14 34 -3 28 0 35 17 41 12 3 21 11 21 17 0 6
11 8 28 4 15 -3 21 -3 15 0 -18 8 -16 44 2 44 9 0 28 20 43 45 15 25 32 45 37
45 6 0 19 20 30 45 22 49 45 59 45 20 0 -19 5 -25 21 -25 14 0 19 5 16 14 -10
25 -19 86 -14 86 3 0 12 -6 19 -13 7 -7 25 -18 41 -24 26 -12 27 -12 21 13 -5
21 -4 25 7 20 8 -3 22 -9 32 -12 10 -4 17 -16 17 -30 0 -21 4 -24 28 -19 15 4
37 8 50 11 13 3 36 -3 52 -12 23 -14 32 -15 44 -5 8 7 21 9 28 5 19 -12 102
-4 111 11 4 7 25 16 47 20 24 4 44 14 50 26 6 10 19 19 30 19 10 0 27 12 37
26 10 14 33 41 51 61 17 20 32 41 32 47 0 6 9 17 21 24 13 9 20 22 19 40 -4
63 -1 72 26 72 22 0 24 3 18 23 -9 27 -9 34 1 70 4 17 3 27 -3 27 -7 0 -9 23
-7 59 3 51 0 63 -19 84 -16 17 -19 28 -12 39 7 12 0 27 -28 62 -34 40 -36 47
-20 53 22 8 88 74 97 96 3 9 15 17 25 17 11 0 26 7 33 16 11 14 11 18 -4 29
-19 13 -23 45 -6 45 6 0 17 -7 25 -15 23 -22 34 -18 34 12 0 18 13 38 42 65
23 21 45 38 48 38 4 0 10 9 13 20 4 14 12 19 29 18 18 -3 24 2 26 25 2 15 -2
27 -8 27 -6 0 -10 10 -8 23 2 12 10 22 18 22 9 0 14 -7 12 -18 -2 -9 5 -20 14
-24 21 -8 44 21 44 54 0 13 4 23 10 23 15 0 67 55 75 79 3 11 11 21 16 21 6 0
24 13 42 30 35 32 57 38 57 16z m-4353 -25 c2 -9 17 -24 34 -33 16 -9 29 -24
29 -33 0 -8 9 -15 20 -15 11 0 20 -7 20 -15 0 -8 9 -15 20 -15 22 0 26 -20 8
-38 -9 -9 -9 -12 0 -12 7 0 12 5 12 10 0 17 22 11 46 -12 13 -13 36 -34 53
-48 16 -14 30 -30 30 -36 1 -7 8 -14 16 -18 8 -3 15 -12 15 -20 0 -8 11 -23
25 -34 17 -14 23 -26 19 -37 -6 -14 -3 -16 14 -10 13 4 22 2 22 -4 0 -6 -5
-11 -11 -11 -6 0 -9 -6 -6 -12 2 -7 15 -13 28 -13 30 0 38 -30 10 -38 -14 -3
-18 -10 -14 -26 7 -27 27 -22 31 7 2 16 10 22 28 22 13 0 24 -6 24 -12 -1 -18
-25 -48 -39 -48 -6 0 -11 -7 -11 -15 0 -8 6 -15 14 -15 8 0 17 -7 20 -16 3 -8
11 -12 17 -9 7 5 4 13 -7 26 -21 23 -10 38 16 21 11 -6 27 -9 37 -5 15 5 16 3
6 -8 -14 -14 -17 -51 -6 -62 3 -4 15 0 25 10 24 21 36 9 15 -15 -10 -10 -17
-27 -17 -38 0 -11 -4 -24 -8 -29 -5 -6 -15 -44 -22 -85 -7 -41 -18 -80 -24
-85 -33 -30 -58 -79 -49 -93 16 -27 31 -24 35 5 2 17 9 28 18 28 21 0 24 -32
6 -60 -21 -32 -20 -52 4 -65 13 -7 20 -21 20 -39 0 -16 7 -34 15 -41 8 -7 15
-28 15 -47 0 -27 3 -34 15 -29 22 8 57 -30 50 -54 -7 -23 26 -45 43 -28 8 8
19 6 39 -8 l28 -19 -27 -3 c-16 -2 -28 -9 -28 -18 0 -17 31 -19 48 -2 9 9 23
5 61 -15 27 -15 54 -27 61 -27 7 0 19 -8 26 -17 11 -15 16 -16 33 -6 13 8 22
9 26 3 7 -12 92 -14 97 -2 2 4 18 15 35 24 25 13 40 15 65 7 43 -12 41 -12 35
12 -4 15 -2 19 10 15 8 -3 20 -6 26 -6 7 0 19 -5 27 -10 13 -9 13 -11 0 -19
-8 -6 -11 -13 -7 -18 5 -4 11 -3 15 3 16 24 43 24 54 -1 6 -14 15 -25 20 -25
5 0 13 -11 18 -25 7 -18 16 -24 32 -22 18 1 24 -4 26 -23 2 -14 13 -32 24 -41
22 -17 17 -39 -8 -39 -8 0 -14 -4 -14 -10 0 -16 40 -12 46 5 4 8 12 15 18 15
18 0 78 -78 66 -85 -20 -13 -10 -27 15 -21 23 6 25 4 19 -19 -5 -20 -2 -25 13
-25 10 0 24 5 31 12 9 9 13 7 18 -7 5 -11 1 -22 -9 -30 -10 -7 -17 -17 -17
-24 0 -14 33 -14 48 1 19 19 45 -10 39 -46 -3 -17 -3 -25 0 -18 7 18 33 15 40
-5 3 -10 15 -28 25 -39 10 -12 18 -25 17 -30 -4 -21 2 -32 21 -37 13 -3 18
-11 14 -20 -3 -8 2 -22 11 -31 14 -14 14 -16 1 -16 -8 0 -21 -9 -29 -20 -9
-13 -20 -18 -31 -14 -11 4 -16 1 -16 -10 0 -9 -10 -20 -22 -25 -15 -5 -23 -17
-23 -32 0 -19 -6 -25 -30 -27 -16 -2 -38 -10 -49 -18 -11 -8 -33 -14 -49 -14
-53 0 -115 -21 -120 -41 -6 -22 -52 -27 -60 -6 -3 6 -3 -3 0 -22 4 -24 3 -32
-5 -27 -7 4 -12 14 -12 22 0 19 -29 18 -36 -1 -4 -8 -18 -15 -33 -15 -15 0
-31 -4 -37 -10 -12 -12 -60 -14 -103 -5 -29 7 -33 6 -28 -8 5 -14 -5 -16 -81
-16 -48 0 -114 4 -148 8 -33 4 -73 4 -88 0 -21 -6 -39 -1 -77 22 -27 16 -56
29 -64 29 -24 0 -26 -18 -3 -23 20 -4 19 -4 -5 -6 -15 0 -30 5 -33 13 -3 8
-21 17 -40 20 -19 4 -46 18 -60 31 -15 14 -38 25 -51 25 -13 0 -40 7 -60 15
-44 18 -40 19 -46 -7 -5 -18 -8 -19 -22 -8 -22 18 -14 34 21 41 29 5 29 6 -14
19 -35 11 -46 11 -67 0 -29 -15 -43 -7 -26 14 15 18 6 37 -14 30 -8 -3 -26 4
-41 15 -15 12 -33 21 -40 21 -7 0 -18 9 -24 20 -6 11 -20 20 -30 20 -26 0 -26
30 0 37 22 6 27 28 8 39 -6 4 -20 -4 -33 -19 -23 -30 -45 -35 -45 -11 0 8 -21
35 -46 59 -31 29 -45 48 -41 59 5 12 -4 18 -34 26 -31 9 -44 19 -55 43 -8 18
-20 40 -26 49 -19 27 -1 33 21 7 18 -22 20 -23 27 -6 4 12 -1 26 -16 43 -27
28 -50 31 -51 7 0 -11 -3 -13 -6 -5 -2 6 -11 12 -19 12 -17 0 -18 22 -2 38 9
9 5 18 -16 38 -16 17 -24 34 -21 45 5 14 1 16 -15 12 -23 -6 -26 7 -9 39 9 18
8 24 -9 37 -35 27 -64 108 -56 158 4 29 3 43 -5 43 -6 0 -11 -12 -11 -26 0
-16 -4 -23 -11 -18 -7 4 -9 24 -6 56 5 36 1 62 -13 99 -25 63 -25 80 0 86 15
4 20 14 20 39 0 18 -5 36 -10 39 -27 17 -48 103 -34 139 9 24 24 19 24 -8 0
-25 15 -43 23 -29 10 17 -6 74 -18 69 -17 -6 -25 15 -25 65 0 39 13 52 24 24
3 -8 13 -15 22 -15 15 0 15 2 0 25 -22 33 -21 41 14 110 17 34 27 68 24 78 -3
10 0 24 6 32 10 12 9 15 -3 15 -10 0 -13 6 -10 20 3 11 11 20 18 20 8 0 16 14
20 31 4 17 13 33 21 36 10 4 11 10 3 25 -14 27 3 47 25 29 17 -14 36 -7 36 13
0 7 12 31 26 52 16 23 22 40 15 42 -6 2 -11 12 -11 22 0 10 -6 20 -12 23 -7 2
-9 8 -5 13 4 5 11 4 15 -2 4 -6 17 -13 30 -16 21 -6 27 1 23 30 -2 15 44 62
60 62 5 0 9 8 9 18 0 10 3 21 6 24 10 11 47 -5 51 -21z m117 -70 c-6 -6 -24
19 -24 34 1 6 7 1 15 -9 8 -11 12 -22 9 -25z m606 -574 c0 -7 14 -28 31 -47
45 -50 240 -258 353 -375 53 -55 95 -104 93 -109 -2 -5 -30 -23 -62 -41 -52
-28 -131 -47 -185 -45 -53 1 -111 14 -121 26 -6 8 -19 14 -29 14 -10 0 -23 7
-30 15 -7 8 -18 15 -24 15 -6 0 -29 20 -51 44 -56 61 -65 74 -65 86 0 6 -8 23
-17 37 -15 22 -18 49 -18 138 1 93 4 117 23 157 35 71 102 128 102 85z m2889
-4 c33 -32 78 -127 84 -178 11 -86 -18 -227 -50 -248 -7 -4 -13 -14 -13 -21 0
-19 -119 -126 -139 -126 -9 0 -27 -8 -41 -17 -18 -13 -47 -17 -120 -17 -94 -1
-122 6 -190 46 -8 5 -23 11 -32 14 -33 11 -18 39 65 121 97 97 283 293 323
343 42 51 87 100 91 100 2 0 12 -8 22 -17z m-2409 -621 c0 -13 -12 -22 -22
-16 -10 6 -1 24 13 24 5 0 9 -4 9 -8z m2254 -61 c3 -5 -1 -11 -9 -15 -9 -3
-15 0 -15 9 0 16 16 20 24 6z"/>
<path d="M5900 4397 c0 -13 9 -34 20 -47 11 -13 20 -28 20 -33 0 -6 3 -8 6 -4
11 11 -17 107 -32 107 -8 0 -14 -10 -14 -23z"/>
<path d="M5467 4364 c-4 -4 -4 -10 -2 -14 6 -10 45 0 45 11 0 10 -33 12 -43 3z"/>
<path d="M5384 4296 c-10 -8 -17 -17 -14 -19 3 -3 14 1 24 9 11 7 17 16 15 19
-3 3 -14 -2 -25 -9z"/>
<path d="M5930 3266 c0 -17 5 -26 16 -26 10 0 14 7 12 22 -5 32 -28 35 -28 4z"/>
<path d="M4370 3249 c0 -7 -7 -17 -17 -24 -27 -20 -6 -38 23 -19 26 18 33 54
9 54 -8 0 -15 -5 -15 -11z"/>
<path d="M4286 3133 c-11 -11 -6 -23 9 -23 8 0 15 4 15 9 0 13 -16 22 -24 14z"/>
<path d="M4367 3134 c-9 -10 2 -24 19 -24 8 0 14 7 14 15 0 15 -21 21 -33 9z"/>
<path d="M5727 2923 c-12 -11 -8 -23 8 -23 8 0 15 7 15 15 0 16 -12 20 -23 8z"/>
<path d="M5625 2860 c-3 -5 3 -10 14 -10 12 0 21 5 21 10 0 6 -6 10 -14 10 -8
0 -18 -4 -21 -10z"/>
<path d="M3920 2735 c0 -10 7 -15 18 -13 21 4 19 22 -2 26 -10 2 -16 -3 -16
-13z"/>
<path d="M5227 2563 c-15 -14 -6 -23 22 -23 34 0 49 15 25 24 -21 8 -39 8 -47
-1z"/>
<path d="M1370 4600 c0 -5 7 -10 15 -10 8 0 15 5 15 10 0 6 -7 10 -15 10 -8 0
-15 -4 -15 -10z"/>
<path d="M1570 4454 c0 -9 9 -18 20 -21 11 -3 20 -11 20 -19 0 -7 6 -17 14
-21 7 -4 15 -13 17 -20 3 -9 9 -9 19 -2 13 8 13 11 -2 23 -10 7 -18 18 -18 25
0 6 -7 11 -15 11 -8 0 -15 9 -15 20 0 13 -7 20 -20 20 -12 0 -20 -7 -20 -16z"/>
<path d="M1650 4325 c0 -10 7 -15 18 -13 21 4 19 22 -2 26 -10 2 -16 -3 -16
-13z"/>
<path d="M1860 3881 c0 -17 5 -31 10 -31 6 0 10 11 10 24 0 14 -4 28 -10 31
-6 4 -10 -7 -10 -24z"/>
<path d="M1854 3616 c-4 -10 -2 -22 4 -28 8 -8 13 -7 18 6 4 10 2 22 -4 28 -8
8 -13 7 -18 -6z"/>
<path d="M1280 2947 c0 -21 12 -28 27 -16 19 16 16 29 -7 29 -11 0 -20 -6 -20
-13z"/>
<path d="M3027 2924 c-8 -8 1 -24 14 -24 5 0 9 7 9 15 0 15 -12 20 -23 9z"/>
<path d="M1432 2814 c4 -21 22 -23 26 -1 2 10 -3 17 -13 17 -10 0 -15 -6 -13
-16z"/>
<path d="M2952 2588 c3 -7 15 -15 27 -16 16 -3 22 1 19 10 -3 7 -15 15 -27 16
-16 3 -22 -1 -19 -10z"/>
<path d="M1910 2580 c0 -5 7 -10 15 -10 8 0 15 5 15 10 0 6 -7 10 -15 10 -8 0
-15 -4 -15 -10z"/>
<path d="M2217 3584 c-8 -8 1 -24 14 -24 5 0 9 7 9 15 0 15 -12 20 -23 9z"/>
<path d="M2722 1749 c2 -6 8 -10 13 -10 5 0 11 4 13 10 2 6 -4 11 -13 11 -9 0
-15 -5 -13 -11z"/>
<path d="M2906 1674 c-15 -14 -15 -19 -3 -33 7 -9 51 -92 98 -186 46 -93 87
-171 92 -173 4 -2 7 -9 7 -15 0 -7 60 -131 134 -277 253 -505 236 -473 261
-464 12 5 135 243 135 263 0 6 5 11 10 11 6 0 10 5 10 12 0 6 13 39 29 72 16
34 32 70 35 81 7 19 8 19 26 -5 11 -14 20 -29 20 -34 0 -4 37 -81 82 -170 45
-88 88 -176 97 -194 32 -67 42 -53 238 333 100 198 223 442 273 542 75 153 94
184 116 189 14 4 30 2 36 -4 8 -8 10 -177 9 -551 -2 -535 -2 -540 18 -551 14
-7 156 -11 443 -11 381 0 424 2 435 16 6 10 9 23 6 31 -5 13 -68 15 -422 14
l-416 -2 -2 546 c-1 301 -5 551 -8 556 -3 6 -37 10 -74 10 -53 0 -71 -4 -85
-19 -14 -16 -104 -191 -427 -833 -44 -86 -79 -161 -79 -166 0 -5 -9 -17 -19
-26 -18 -17 -20 -16 -26 6 -11 33 -157 329 -178 358 -18 26 -23 65 -9 74 11 6
242 468 242 483 0 5 9 20 20 33 11 13 20 36 20 51 0 22 -5 28 -27 32 -24 4
-574 3 -610 -2 -7 0 -13 -9 -13 -19 0 -16 254 -531 290 -589 13 -20 12 -27 -8
-60 -12 -21 -60 -116 -107 -210 -47 -95 -87 -173 -89 -173 -2 0 -115 224 -251
498 -299 602 -281 566 -298 570 -8 2 -22 -5 -31 -14z m841 -59 c122 0 225 -3
229 -7 4 -5 1 -16 -8 -25 -16 -20 -208 -406 -208 -419 0 -5 -9 -20 -20 -34
l-19 -25 -26 60 c-28 63 -144 296 -188 379 -34 63 -36 90 -4 80 12 -5 122 -8
244 -9z"/>
<path d="M2260 1651 c-30 -9 -68 -23 -83 -29 -16 -7 -31 -12 -35 -12 -14 -1
-102 -66 -146 -108 -158 -151 -219 -396 -147 -599 16 -44 45 -106 65 -136 41
-61 121 -144 149 -153 9 -3 17 -9 17 -12 0 -6 40 -29 111 -62 41 -20 148 -40
214 -40 170 0 333 75 445 206 48 56 120 186 120 216 0 11 5 28 11 39 6 11 10
64 10 118 0 109 -14 167 -64 271 -40 82 -169 215 -242 248 -27 13 -58 27 -67
33 -69 37 -269 48 -358 20z m315 -65 c181 -75 285 -183 336 -349 18 -56 20
-87 17 -180 -2 -62 -8 -121 -14 -132 -6 -11 -25 -49 -42 -85 -45 -93 -137
-184 -222 -223 -98 -44 -120 -50 -217 -54 -119 -6 -203 14 -303 74 -57 33
-150 117 -150 134 0 4 -6 14 -14 22 -8 7 -23 33 -34 58 -74 164 -72 333 7 487
31 60 125 157 189 194 106 62 173 79 297 74 71 -3 124 -10 150 -20z"/>
<path d="M2395 730 c-4 -6 6 -10 22 -10 22 0 25 2 13 10 -19 12 -27 12 -35 0z"/>
</g>
</svg>
